<svg width="120" height="32" viewBox="0 0 120 32" fill="none" xmlns="http://www.w3.org/2000/svg">
<g clip-path="url(#clip0_906_5975)">
<path d="M3.70552 10.3431C3.70552 15.208 7.12468 17.2445 10.7718 18.489C14.8747 19.8467 17.838 20.073 17.838 22.2226C17.838 24.2591 15.6725 25.0511 13.849 25.0511C12.3674 25.0511 11.2276 24.9379 10.4298 24.2591C9.63204 23.4671 9.29013 22.562 9.29013 20.865H0.514335C0.172423 28.4453 6.2129 31.5 13.0512 31.5C19.4336 31.5 26.3858 28.1058 26.3858 20.9781C26.3858 17.4708 24.6763 14.6423 19.5476 12.8321C16.6983 11.8139 12.1394 11.7007 12.1394 9.43795C12.1394 7.40145 14.1909 7.06204 15.6725 7.06204C16.6983 7.06204 17.724 7.28831 18.4078 7.74087C19.0917 8.30656 19.4336 8.9854 19.4336 10.1168H27.8675C28.0954 2.76277 22.2829 0.5 16.0144 0.5C10.2019 0.613134 3.70552 3.66787 3.70552 10.3431Z" fill="white"/>
<path d="M31.8559 1.29199L25.8154 30.9343H34.0214L36.4148 19.6205C36.9846 17.3577 37.7824 15.4343 40.4038 15.4343C41.6575 15.4343 42.7972 16.1132 42.7972 17.4708C42.7972 18.3759 42.3413 19.8467 42.1133 20.9781L40.0619 30.9343H48.2678L50.8891 18.8285C51.231 17.2445 51.459 15.6606 51.459 14.6424C51.459 10.4562 48.2678 8.87228 44.3928 8.87228C42.1133 8.87228 39.492 10.1168 38.0104 12.1533H37.8964L40.1758 1.29199H31.8559Z" fill="white"/>
<path d="M58.9811 24.7116C58.9811 23.1276 60.2348 22.4488 61.7164 22.3357C63.1981 22.2225 64.7937 22.1094 66.0474 21.4306C65.4775 24.5984 64.4518 26.6349 61.6025 26.6349C60.3488 26.6349 58.9811 26.2955 58.9811 24.7116ZM53.6245 15.8868H61.3745C61.8304 14.3028 62.9701 13.624 64.6797 13.624C65.9334 13.624 67.301 13.9634 67.301 15.5474C67.301 18.2627 63.54 17.9233 61.2606 18.0364C55.1061 18.489 50.8892 20.0729 50.8892 25.7298C50.8892 29.916 54.1943 31.3868 57.8414 31.3868C60.2348 31.3868 63.0841 30.4817 64.4518 28.7846H64.5657C64.4518 29.4634 64.6797 30.1422 64.7937 30.8211H72.8856C72.5437 29.8028 72.6577 30.5948 72.5437 28.8977C72.5437 27.5401 75.1651 17.8101 75.1651 14.416C75.1651 9.21159 68.5547 8.75903 64.6797 8.75903C59.323 8.87217 54.8782 10.1167 53.6245 15.8868Z" fill="white"/>
<path d="M103.658 15.6606H103.544L106.507 1.29199H98.3012L92.2607 30.9343H100.353L101.72 24.8248L103.544 23.1278L106.393 30.9343H115.397L109.926 18.1497L119.5 9.43798H109.698L103.658 15.6606Z" fill="white"/>
<path d="M86.4482 12.7189L87.0181 9.32473H79.0401L74.5952 30.8211H82.8012L84.7387 21.77C85.6504 17.2444 87.474 15.7736 90.8931 15.7736C91.9189 15.7736 93.0586 15.9999 93.9703 16.3393L95.566 9.09845C94.7682 8.87217 93.9704 8.75903 92.7167 8.75903C90.4372 8.87217 87.8159 10.5692 86.4482 12.7189Z" fill="white"/>
</g>
<defs>
<clipPath id="clip0_906_5975">
<rect width="119" height="31" fill="white" transform="translate(0.5 0.5)"/>
</clipPath>
</defs>
</svg>
