<svg width="125" height="126" viewBox="0 0 125 126" fill="none" xmlns="http://www.w3.org/2000/svg">
<path fill-rule="evenodd" clip-rule="evenodd" d="M50.3052 4.48909L49.3707 3.21143L48.3445 4.41675C31.6847 23.9853 11.2289 53.4567 4.27826 78.144C0.807302 90.4722 0.616589 101.922 6.35089 110.321C12.1124 118.76 23.5486 123.686 42.2691 123.686C61.0109 123.686 72.9624 118.752 79.6669 110.399C84.4127 104.486 86.3975 97.0228 86.4363 88.7688C88.0313 88.61 89.7058 88.5235 91.4599 88.5235C100.426 88.5235 106.617 83.5181 110.569 78.0422C112.935 74.763 114.546 71.2553 115.508 68.4212L119.784 81.7937L122.165 81.0323L116.543 63.4509L116.078 61.9978L114.745 62.7392L97.8798 72.1159L99.0946 74.3009L113.567 66.2543C112.793 68.97 111.186 72.9144 108.541 76.5792C104.88 81.6521 99.3593 86.0235 91.4599 86.0235C89.6965 86.0235 88.0065 86.107 86.3901 86.2616C86.2839 83.6629 85.9995 80.996 85.561 78.2833C84.6092 72.3944 82.9225 66.234 80.7115 60.001C85.2478 59.473 88.7231 58.2202 91.6041 56.1998C95.2179 53.6656 97.7651 50.0064 100.324 45.4585L104.354 58.0998L106.739 57.3114L101.827 41.9045L101.445 40.708L100.245 41.1169L84.5256 46.4751L85.3035 48.8387L98.004 44.5097C95.553 48.8299 93.2769 51.9941 90.1862 54.1615C87.6117 55.967 84.3815 57.138 79.8305 57.5866C72.6426 38.4154 60.7744 18.8022 50.3052 4.48909ZM77.2237 57.7587C70.3495 39.7064 59.2782 21.1957 49.2211 7.25061C32.8233 26.7328 13.3444 55.1676 6.6847 78.8216C3.28068 90.912 3.31328 101.438 8.41556 108.912C13.4906 116.345 23.8857 121.186 42.2691 121.186C60.631 121.186 71.682 116.353 77.7173 108.834C81.9527 103.557 83.8472 96.7991 83.9345 89.0853C72.0657 90.9133 65.1034 96.7456 62.9602 99.7244L60.9309 98.2644C63.513 94.6754 71.1995 88.4257 83.9006 86.5625C83.8058 84.0226 83.5308 81.39 83.0931 78.6823C82.1352 72.756 80.4075 66.5288 78.1346 60.2171C76.5695 60.3015 74.8891 60.3139 73.0787 60.2556C60.2701 59.8427 52.1185 69.2633 49.6666 74.0225L47.4458 72.9039C50.1457 67.6634 59.0387 57.302 73.1945 57.7582C74.6327 57.8046 75.9725 57.8043 77.2237 57.7587Z" fill="#F5F5F5"/>
<path d="M49.3707 3.21143L50.5814 2.32587L49.4599 0.792667L48.2285 2.23906L49.3707 3.21143ZM50.3052 4.48909L51.5159 3.60353V3.60353L50.3052 4.48909ZM48.3445 4.41675L49.4866 5.38912L49.4867 5.38912L48.3445 4.41675ZM4.27826 78.144L5.72212 78.5506L4.27826 78.144ZM6.35089 110.321L7.58969 109.476L6.35089 110.321ZM79.6669 110.399L78.4971 109.46L79.6669 110.399ZM86.4363 88.7688L86.2877 87.2762L84.9427 87.4101L84.9363 88.7618L86.4363 88.7688ZM110.569 78.0422L109.352 77.1644L110.569 78.0422ZM115.508 68.4212L116.936 67.9643L115.55 63.6296L114.087 67.9389L115.508 68.4212ZM119.784 81.7937L118.355 82.2506L118.812 83.6793L120.241 83.2225L119.784 81.7937ZM122.165 81.0323L122.622 82.4611L124.051 82.0042L123.594 80.5755L122.165 81.0323ZM116.543 63.4509L117.972 62.9941V62.9941L116.543 63.4509ZM116.078 61.9978L117.507 61.541L116.95 59.7972L115.35 60.6868L116.078 61.9978ZM114.745 62.7392L114.016 61.4281L114.016 61.4282L114.745 62.7392ZM97.8798 72.1159L97.1509 70.8049L95.8399 71.5338L96.5687 72.8448L97.8798 72.1159ZM99.0946 74.3009L97.7836 75.0298L98.5125 76.3408L99.8235 75.6119L99.0946 74.3009ZM113.567 66.2543L115.01 66.6659L116.003 63.1838L112.839 64.9433L113.567 66.2543ZM108.541 76.5792L109.758 77.457H109.758L108.541 76.5792ZM86.3901 86.2616L84.8913 86.3228L84.956 87.9055L86.5328 87.7548L86.3901 86.2616ZM85.561 78.2833L84.0803 78.5227L85.561 78.2833ZM80.7115 60.001L80.5381 58.5111L78.6686 58.7287L79.2978 60.5025L80.7115 60.001ZM91.6041 56.1998L90.7428 54.9717L91.6041 56.1998ZM100.324 45.4585L101.753 45.0029L100.706 41.7198L99.0166 44.723L100.324 45.4585ZM104.354 58.0998L102.925 58.5555L103.386 60L104.825 59.524L104.354 58.0998ZM106.739 57.3114L107.209 58.7355L108.618 58.2697L108.168 56.8558L106.739 57.3114ZM101.827 41.9045L103.256 41.4489V41.4489L101.827 41.9045ZM101.445 40.708L102.874 40.2524L102.409 38.7946L100.961 39.2882L101.445 40.708ZM100.245 41.1169L100.729 42.5367H100.729L100.245 41.1169ZM84.5256 46.4751L84.0417 45.0553L82.6368 45.5342L83.1008 46.944L84.5256 46.4751ZM85.3035 48.8387L83.8787 49.3076L84.3526 50.7475L85.7875 50.2584L85.3035 48.8387ZM98.004 44.5097L99.3086 45.2498L101.257 41.8162L97.52 43.0899L98.004 44.5097ZM90.1862 54.1615L89.3249 52.9334L90.1862 54.1615ZM79.8305 57.5866L78.4259 58.1132L78.8306 59.1924L79.9776 59.0794L79.8305 57.5866ZM49.2211 7.25061L50.4377 6.37319L49.3123 4.8128L48.0735 6.28469L49.2211 7.25061ZM77.2237 57.7587L77.2784 59.2577L79.3706 59.1815L78.6255 57.2249L77.2237 57.7587ZM6.6847 78.8216L8.12856 79.2281L6.6847 78.8216ZM8.41556 108.912L7.17676 109.757H7.17676L8.41556 108.912ZM77.7173 108.834L76.5475 107.895L77.7173 108.834ZM83.9345 89.0853L85.4344 89.1022L85.4545 87.3335L83.7062 87.6027L83.9345 89.0853ZM62.9602 99.7244L62.0842 100.942L63.3018 101.818L64.1778 100.6L62.9602 99.7244ZM60.9309 98.2644L59.7132 97.3884L58.8372 98.606L60.0548 99.482L60.9309 98.2644ZM83.9006 86.5625L84.1183 88.0466L85.4498 87.8513L85.3996 86.5066L83.9006 86.5625ZM83.0931 78.6823L84.5739 78.4429L83.0931 78.6823ZM78.1346 60.2171L79.5459 59.7089L79.1679 58.6592L78.0538 58.7193L78.1346 60.2171ZM73.0787 60.2556L73.1271 58.7563L73.0787 60.2556ZM49.6666 74.0225L48.9918 75.3621L50.3193 76.0307L51 74.7094L49.6666 74.0225ZM47.4458 72.9039L46.1124 72.217L45.4191 73.5627L46.7711 74.2436L47.4458 72.9039ZM73.1945 57.7582L73.2428 56.259L73.1945 57.7582ZM48.16 4.09699L49.0945 5.37465L51.5159 3.60353L50.5814 2.32587L48.16 4.09699ZM49.4867 5.38912L50.5128 4.1838L48.2285 2.23906L47.2024 3.44438L49.4867 5.38912ZM5.72212 78.5506C12.582 54.1857 32.8613 24.9172 49.4866 5.38912L47.2024 3.44438C30.5081 23.0534 9.87582 52.7277 2.83439 77.7375L5.72212 78.5506ZM7.58969 109.476C2.23473 101.632 2.29123 90.7364 5.72212 78.5506L2.83439 77.7375C-0.676622 90.208 -1.00155 102.213 5.11208 111.167L7.58969 109.476ZM42.2691 122.186C23.7502 122.186 12.9391 117.311 7.58969 109.476L5.11208 111.167C11.2857 120.209 23.347 125.186 42.2691 125.186V122.186ZM78.4971 109.46C72.1943 117.312 60.7834 122.186 42.2691 122.186V125.186C61.2384 125.186 73.7305 120.191 80.8367 111.338L78.4971 109.46ZM84.9363 88.7618C84.8986 96.7859 82.9712 103.886 78.4971 109.46L80.8367 111.338C85.8542 105.087 87.8964 97.2596 87.9363 88.7759L84.9363 88.7618ZM91.4599 87.0235C89.6564 87.0235 87.9323 87.1124 86.2877 87.2762L86.5849 90.2614C88.1303 90.1075 89.7551 90.0235 91.4599 90.0235V87.0235ZM109.352 77.1644C105.575 82.3992 99.7854 87.0235 91.4599 87.0235V90.0235C101.067 90.0235 107.659 84.6371 111.785 78.92L109.352 77.1644ZM114.087 67.9389C113.164 70.6588 111.616 74.0273 109.352 77.1644L111.785 78.92C114.254 75.4987 115.927 71.8518 116.928 68.9034L114.087 67.9389ZM121.212 81.3369L116.936 67.9643L114.079 68.878L118.355 82.2506L121.212 81.3369ZM121.708 79.6036L119.327 80.365L120.241 83.2225L122.622 82.4611L121.708 79.6036ZM115.114 63.9078L120.736 81.4892L123.594 80.5755L117.972 62.9941L115.114 63.9078ZM114.65 62.4547L115.114 63.9078L117.972 62.9941L117.507 61.541L114.65 62.4547ZM115.474 64.0502L116.807 63.3088L115.35 60.6868L114.016 61.4281L115.474 64.0502ZM98.6086 73.4269L115.474 64.0502L114.016 61.4282L97.1509 70.8049L98.6086 73.4269ZM100.406 73.572L99.1908 71.387L96.5687 72.8448L97.7836 75.0298L100.406 73.572ZM112.839 64.9433L98.3657 72.9899L99.8235 75.6119L114.296 67.5653L112.839 64.9433ZM109.758 77.457C112.523 73.6252 114.197 69.5153 115.01 66.6659L112.125 65.8428C111.388 68.4247 109.849 72.2035 107.325 75.7014L109.758 77.457ZM91.4599 87.5235C99.9986 87.5235 105.922 82.7724 109.758 77.457L107.325 75.7014C103.839 80.5318 98.7199 84.5235 91.4599 84.5235V87.5235ZM86.5328 87.7548C88.1016 87.6048 89.744 87.5235 91.4599 87.5235V84.5235C89.6491 84.5235 87.9114 84.6093 86.2473 84.7684L86.5328 87.7548ZM84.0803 78.5227C84.5104 81.1839 84.7879 83.791 84.8913 86.3228L87.8888 86.2004C87.7799 83.5349 87.4886 80.8082 87.0418 78.044L84.0803 78.5227ZM79.2978 60.5025C81.4862 66.6718 83.146 72.743 84.0803 78.5227L87.0418 78.044C86.0723 72.0458 84.3588 65.7962 82.1252 59.4995L79.2978 60.5025ZM90.7428 54.9717C88.1067 56.8204 84.8818 58.0055 80.5381 58.5111L80.8849 61.491C85.6139 60.9405 89.3395 59.62 92.4653 57.4279L90.7428 54.9717ZM99.0166 44.723C96.484 49.2242 94.0714 52.6375 90.7428 54.9717L92.4653 57.4279C96.3643 54.6937 99.0461 50.7885 101.631 46.194L99.0166 44.723ZM105.783 57.6442L101.753 45.0029L98.8947 45.9141L102.925 58.5555L105.783 57.6442ZM106.268 55.8872L103.883 56.6757L104.825 59.524L107.209 58.7355L106.268 55.8872ZM100.397 42.3601L105.309 57.767L108.168 56.8558L103.256 41.4489L100.397 42.3601ZM100.016 41.1636L100.397 42.3601L103.256 41.4489L102.874 40.2524L100.016 41.1636ZM100.729 42.5367L101.929 42.1278L100.961 39.2882L99.7615 39.6971L100.729 42.5367ZM85.0096 47.8949L100.729 42.5367L99.7615 39.6971L84.0417 45.0553L85.0096 47.8949ZM86.7283 48.3697L85.9504 46.0061L83.1008 46.944L83.8787 49.3076L86.7283 48.3697ZM97.52 43.0899L84.8196 47.4189L85.7875 50.2584L98.4879 45.9294L97.52 43.0899ZM91.0474 55.3896C94.42 53.0245 96.8303 49.6183 99.3086 45.2498L96.6993 43.7695C94.2757 48.0415 92.1338 50.9636 89.3249 52.9334L91.0474 55.3896ZM79.9776 59.0794C84.7232 58.6116 88.2157 57.3755 91.0474 55.3896L89.3249 52.9334C87.0077 54.5585 84.0398 55.6644 79.6833 56.0938L79.9776 59.0794ZM49.0945 5.37465C59.512 19.6169 71.3006 39.1088 78.4259 58.1132L81.235 57.06C73.9846 37.722 62.0369 17.9874 51.5159 3.60353L49.0945 5.37465ZM48.0045 8.12803C58.0117 22.0039 69.0079 40.3984 75.8219 58.2925L78.6255 57.2249C71.691 39.0143 60.5448 20.3875 50.4377 6.37319L48.0045 8.12803ZM8.12856 79.2281C14.6987 55.8923 34.0047 27.6586 50.3687 8.21653L48.0735 6.28469C31.642 25.8069 11.9901 54.4428 5.24083 78.4151L8.12856 79.2281ZM9.65437 108.066C4.93115 101.148 4.76481 91.1755 8.12856 79.2281L5.24083 78.4151C1.79654 90.6485 1.6954 101.729 7.17676 109.757L9.65437 108.066ZM42.2691 119.686C24.0887 119.686 14.3178 114.896 9.65437 108.066L7.17676 109.757C12.6635 117.794 23.6828 122.686 42.2691 122.686V119.686ZM76.5475 107.895C70.9136 114.914 60.4027 119.686 42.2691 119.686V122.686C60.8593 122.686 72.4504 117.792 78.8871 109.773L76.5475 107.895ZM82.4346 89.0683C82.3499 96.5524 80.515 102.952 76.5475 107.895L78.8871 109.773C83.3904 104.162 85.3445 97.0458 85.4344 89.1022L82.4346 89.0683ZM64.1778 100.6C66.0646 97.978 72.6541 92.3404 84.1629 90.5678L83.7062 87.6027C71.4772 89.4862 64.1422 95.5131 61.7426 98.8484L64.1778 100.6ZM60.0548 99.482L62.0842 100.942L63.8362 98.5068L61.8069 97.0468L60.0548 99.482ZM83.6829 85.0784C70.6164 86.9952 62.5533 93.4408 59.7132 97.3884L62.1485 99.1404C64.4727 95.9099 71.7827 89.8562 84.1183 88.0466L83.6829 85.0784ZM81.6123 78.9216C82.0414 81.5765 82.3094 84.1474 82.4017 86.6185L85.3996 86.5066C85.3022 83.8978 85.0201 81.2036 84.5739 78.4429L81.6123 78.9216ZM76.7233 60.7253C78.9731 66.9728 80.6727 73.1083 81.6123 78.9216L84.5739 78.4429C83.5977 72.4037 81.8419 66.0848 79.5459 59.7089L76.7233 60.7253ZM78.0538 58.7193C76.538 58.8011 74.9012 58.8135 73.1271 58.7563L73.0304 61.7548C74.877 61.8143 76.6009 61.802 78.2154 61.7149L78.0538 58.7193ZM73.1271 58.7563C59.518 58.3177 50.9308 68.2934 48.3332 73.3355L51 74.7094C53.3062 70.2332 61.0222 61.3677 73.0304 61.7548L73.1271 58.7563ZM50.3413 72.6828L48.1205 71.5643L46.7711 74.2436L48.9918 75.3621L50.3413 72.6828ZM48.7792 73.5909C51.3347 68.6306 59.7929 58.8271 73.1461 59.2575L73.2428 56.259C58.2844 55.7769 48.9566 66.6962 46.1124 72.217L48.7792 73.5909ZM73.1461 59.2575C74.6143 59.3048 75.9886 59.3047 77.2784 59.2577L77.1691 56.2597C75.9563 56.3039 74.6512 56.3044 73.2428 56.259L73.1461 59.2575Z" fill="#F5F5F5"/>
</svg>
