<svg width="124" height="125" viewBox="0 0 124 125" fill="none" xmlns="http://www.w3.org/2000/svg">
<path fill-rule="evenodd" clip-rule="evenodd" d="M81.3886 13.2036V2H83.8886V11.4438C85.5483 10.3726 87.3101 9.98382 89.0057 10.2653C91.8057 10.7302 93.9958 12.9589 94.8901 15.9673C95.7898 18.994 95.4141 22.8434 93.1808 26.859C92.6349 27.8405 91.9469 28.6047 91.0737 29.0015C90.1612 29.4162 89.2274 29.3483 88.3953 29.004C86.8536 28.366 85.5165 26.7316 84.4806 24.9861C83.4068 23.1768 82.5045 20.9869 81.9356 18.8932C81.833 18.5155 81.7397 18.1355 81.6577 17.7566C80.0699 20.6896 78.7338 25.053 78.1005 31.2292C77.4046 38.0159 77.9171 43.2548 79.028 47.0843C79.615 45.9158 80.295 44.9006 81.0308 44.0407C82.746 42.0363 84.8268 40.8192 86.755 40.6455C87.7321 40.5575 88.7092 40.7383 89.532 41.2823C90.3658 41.8335 90.9315 42.6857 91.1938 43.7317C92.4182 48.6127 92.0499 52.4684 90.553 54.9397C89.7953 56.1906 88.7394 57.0915 87.4762 57.5167C86.2121 57.9422 84.8466 57.8552 83.5376 57.3178C82.1155 56.734 80.7596 55.6264 79.5748 54.0312C79.1811 57.2231 79.4133 61.1385 80.6941 65.8003C80.7865 66.1365 80.879 66.4647 80.9716 66.7849C81.1664 66.6402 81.3646 66.5027 81.5659 66.3724C83.9878 64.8047 86.852 64.3228 89.2087 65.1587C91.6651 66.0299 93.3384 68.2554 93.3384 71.5207C93.3384 73.5769 92.8769 75.6879 92.0543 77.3671C91.2615 78.9857 89.9632 80.5204 88.1258 80.7753C86.2067 81.0415 84.4152 79.8324 82.8687 77.617C81.8799 76.2006 80.8973 74.252 79.941 71.6781C78.0417 74.9944 77.4487 80.2776 80.6381 87.7357C81.6189 90.0291 82.632 92.0171 83.6476 93.7187C84.826 90.625 86.3473 88.4571 88.0483 87.2276C89.2055 86.3912 90.4742 85.9734 91.7514 86.0635C93.0301 86.1538 94.1853 86.7441 95.1269 87.6848C96.9785 89.5345 98.0625 92.7673 98.0625 96.85C98.0625 99.4432 97.4151 101.61 96.0499 102.967C94.6113 104.397 92.6257 104.687 90.5807 103.988C88.655 103.329 86.6218 101.792 84.6291 99.4407C83.7189 103.977 83.3325 110.022 83.8854 117.779L81.3917 117.957C80.7554 109.029 81.326 102.18 82.5774 97.1686C82.6057 97.0555 82.6343 96.9432 82.6633 96.8318C81.1822 94.6406 79.7197 91.9461 78.3395 88.7187C74.3914 79.4867 75.6709 72.6938 78.9412 68.7213C78.72 68.0056 78.5007 67.2532 78.2835 66.4627C76.5193 60.0415 76.5926 54.7702 77.6734 50.6958C77.4581 50.2044 77.255 49.6888 77.0652 49.1495C75.5364 44.8066 74.8126 38.7858 75.6135 30.9742C76.4133 23.1745 78.3255 17.8463 80.7343 14.5281C80.9239 14.2671 81.1171 14.0179 81.3136 13.7805C81.3314 13.5826 81.3562 13.39 81.3886 13.2036ZM85.3895 96.364C85.7109 96.8037 86.0309 97.2155 86.3484 97.5999C88.2464 99.8972 89.9969 101.146 91.3901 101.622C92.7312 102.081 93.6591 101.819 94.2875 101.194C94.9893 100.497 95.5625 99.107 95.5625 96.85C95.5625 93.1183 94.5598 90.652 93.36 89.4534C92.776 88.87 92.1643 88.5989 91.5754 88.5573C90.9848 88.5157 90.2849 88.6957 89.5128 89.2538C88.0947 90.2788 86.545 92.5134 85.3895 96.364ZM81.7748 69.3639C82.8495 72.5596 83.9206 74.7563 84.9186 76.186C86.2759 78.1304 87.2734 78.3696 87.7823 78.299C88.373 78.2171 89.1419 77.6298 89.8092 76.2674C90.4468 74.9658 90.8384 73.237 90.8384 71.5207C90.8384 69.2309 89.7556 68.0053 88.3731 67.5149C86.891 66.9892 84.8335 67.2354 82.9244 68.4711C82.5326 68.7247 82.1465 69.022 81.7748 69.3639ZM80.3373 50.4938C81.6096 53.04 83.1492 54.4559 84.487 55.0051C85.3112 55.3435 86.0541 55.3576 86.6787 55.1473C87.3043 54.9367 87.9176 54.4651 88.4147 53.6445C89.4272 51.9728 89.9103 48.8899 88.769 44.3399C88.6386 43.8202 88.4014 43.5318 88.1533 43.3678C87.8943 43.1966 87.5107 43.0876 86.9793 43.1355C85.8906 43.2335 84.3637 43.991 82.9303 45.6661C81.9227 46.8436 80.9904 48.4491 80.3373 50.4938ZM83.7805 14.7649C83.8015 15.7314 83.9921 16.9274 84.3481 18.2376C84.8633 20.1338 85.682 22.112 86.6305 23.7102C87.6169 25.3722 88.6034 26.3845 89.3512 26.694C89.6638 26.8233 89.8662 26.8042 90.0394 26.7255C90.2519 26.6289 90.5991 26.3575 90.996 25.6439C92.9589 22.1145 93.171 18.958 92.4938 16.6797C91.8111 14.3831 90.2594 13.0077 88.5963 12.7316C87.2371 12.5059 85.5044 12.9698 83.7805 14.7649ZM41.5739 7.95076L41.574 7.95064C42.3794 6.22025 43.1861 4.48702 43.8626 2.64657L46.2091 3.50911C45.4929 5.45758 44.6297 7.31141 43.8194 9.05156L43.8188 9.05281L43.8179 9.05476C43.614 9.49282 43.4134 9.92367 43.2193 10.347C42.2375 12.4889 41.416 14.4523 41.0097 16.3897C40.6093 18.2988 40.6179 20.1608 41.2948 22.103C41.9767 24.0596 43.3702 26.1923 45.8942 28.5762C47.6667 30.2503 48.7413 31.9901 49.1982 33.7969C49.6558 35.6066 49.4654 37.3709 48.8967 39.0432C47.7862 42.3087 45.1566 45.4075 42.7493 48.1657C42.5776 48.3624 42.4068 48.5575 42.2373 48.7512C41.1877 49.9506 40.1867 51.0945 39.3172 52.2122C38.3047 53.5137 37.5344 54.7012 37.1043 55.7937C36.6814 56.8678 36.6184 57.7673 36.8983 58.5756C37.1829 59.3973 37.8913 60.3261 39.4141 61.3088C44.1064 64.3366 46.1038 67.0314 46.0313 70.2855C45.9973 71.8122 45.5028 73.3302 44.8648 74.8688C44.5273 75.6828 44.1041 76.6015 43.6605 77.5643L43.6604 77.5645L43.6601 77.5651C43.2994 78.3482 42.9252 79.1604 42.5727 79.9692C40.9369 83.723 39.2722 88.4485 39.0258 94.9939C38.7789 101.551 39.9532 110.009 44.108 121.205L41.7641 122.075C37.5195 110.637 36.2659 101.849 36.5276 94.8999C36.7897 87.9386 38.5701 82.8962 40.2809 78.9704C40.6915 78.0282 41.0737 77.2014 41.4285 76.4338L41.4286 76.4334L41.4287 76.4334C41.8406 75.5422 42.2156 74.7309 42.5555 73.9113C43.1623 72.4479 43.5085 71.2798 43.5319 70.2298C43.5742 68.3304 42.5532 66.3096 38.0586 63.4094C36.248 62.241 35.0634 60.9167 34.536 59.3937C34.0039 57.8573 34.2101 56.3206 34.778 54.8779C35.3388 53.4535 36.2811 52.0434 37.3439 50.6772C38.2616 49.4976 39.3166 48.2923 40.3624 47.0975L40.3625 47.0974C40.5307 46.9052 40.6987 46.7132 40.8658 46.5218C43.3406 43.6862 45.6061 40.9545 46.5298 38.2383C46.9782 36.9199 47.0896 35.6557 46.7745 34.4098C46.4587 33.1611 45.6861 31.8184 44.1776 30.3937C41.452 27.8195 39.7832 25.3623 38.934 22.9257C38.0797 20.4745 38.0883 18.1397 38.5629 15.8766C39.0315 13.6419 39.9599 11.4579 40.9467 9.30525C41.1539 8.85314 41.3636 8.40267 41.5734 7.95202L41.5736 7.95149L41.5739 7.95076ZM61.5224 7.95086L61.5224 7.95081L61.5224 7.95077C62.3279 6.22034 63.1346 4.48707 63.8111 2.64657L66.1576 3.50911C65.4414 5.45756 64.5782 7.31137 63.768 9.05151L63.7679 9.05154C63.5634 9.49071 63.3623 9.92263 63.1678 10.347C62.186 12.4889 61.3645 14.4523 60.9582 16.3897C60.5578 18.2988 60.5664 20.1608 61.2433 22.103C61.9252 24.0596 63.3187 26.1923 65.8427 28.5762C67.6152 30.2503 68.6898 31.9901 69.1467 33.7969C69.6043 35.6066 69.4139 37.3709 68.8452 39.0432C67.7347 42.3087 65.1051 45.4075 62.6978 48.1657C62.5261 48.3624 62.3553 48.5576 62.1858 48.7513L62.1857 48.7514L62.1856 48.7515C61.1361 49.9508 60.1351 51.0946 59.2657 52.2122C58.2532 53.5137 57.4829 54.7012 57.0528 55.7937C56.6299 56.8678 56.5669 57.7673 56.8468 58.5756C57.1314 59.3973 57.8398 60.3261 59.3626 61.3088C64.0549 64.3366 66.0523 67.0314 65.9798 70.2855C65.9458 71.8122 65.4513 73.3302 64.8133 74.8688C64.4758 75.6828 64.0526 76.6015 63.609 77.5643L63.6089 77.5645L63.6086 77.5651C63.2479 78.3482 62.8737 79.1604 62.5212 79.9692C60.8854 83.723 59.2207 88.4485 58.9743 94.9939C58.7274 101.551 59.9017 110.009 64.0565 121.205L61.7126 122.075C57.468 110.637 56.2144 101.849 56.4761 94.8999C56.7382 87.9386 58.5186 82.8962 60.2294 78.9704C60.64 78.0281 61.0222 77.2012 61.3771 76.4335C61.7891 75.5423 62.1641 74.7309 62.504 73.9113C63.1108 72.4479 63.457 71.2798 63.4804 70.2298C63.5227 68.3304 62.5017 66.3096 58.0071 63.4094C56.1965 62.241 55.0119 60.9167 54.4845 59.3937C53.9524 57.8573 54.1586 56.3206 54.7265 54.8779C55.2873 53.4535 56.2296 52.0434 57.2924 50.6772C58.2101 49.4976 59.2651 48.2923 60.3109 47.0975L60.311 47.0974C60.4792 46.9052 60.6472 46.7132 60.8143 46.5218C63.2891 43.6862 65.5546 40.9545 66.4783 38.2383C66.9267 36.9199 67.0381 35.6557 66.723 34.4098C66.4072 33.1611 65.6346 31.8184 64.1261 30.3937C61.4005 27.8195 59.7317 25.3623 58.8825 22.9257C58.0282 20.4745 58.0368 18.1397 58.5114 15.8766C58.98 13.6419 59.9084 11.4579 60.8952 9.30525C61.1025 8.85296 61.3123 8.40232 61.5221 7.95149L61.5224 7.95086ZM4.28906 3.07784V121.64H1.78906V3.07784H4.28906ZM21.0878 3.07784V121.64H18.5878V3.07784H21.0878ZM105.537 2V13.2036C105.504 13.39 105.48 13.5826 105.462 13.7805C105.265 14.0179 105.072 14.2671 104.883 14.5281C102.474 17.8463 100.561 23.1745 99.7617 30.9742C98.9607 38.7858 99.6846 44.8066 101.213 49.1495C101.403 49.6888 101.606 50.2044 101.822 50.6958C100.741 54.7702 100.667 60.0415 102.432 66.4627C102.649 67.2532 102.868 68.0056 103.089 68.7213C99.8191 72.6938 98.5396 79.4867 102.488 88.7187C103.868 91.9461 105.33 94.6406 106.811 96.8318C106.782 96.9432 106.754 97.0555 106.726 97.1686C105.474 102.18 104.904 109.029 105.54 117.957L108.034 117.779C107.481 110.022 107.867 103.977 108.777 99.4407C110.77 101.792 112.803 103.329 114.729 103.988C116.774 104.687 118.759 104.397 120.198 102.967C121.563 101.61 122.211 99.4432 122.211 96.85C122.211 92.7673 121.127 89.5345 119.275 87.6848C118.333 86.7441 117.178 86.1538 115.9 86.0635C114.622 85.9734 113.354 86.3912 112.197 87.2276C110.496 88.4571 108.974 90.625 107.796 93.7187C106.78 92.0171 105.767 90.0291 104.786 87.7357C101.597 80.2776 102.19 74.9944 104.089 71.6781C105.046 74.252 106.028 76.2006 107.017 77.617C108.563 79.8324 110.355 81.0415 112.274 80.7753C114.111 80.5204 115.41 78.9857 116.202 77.3671C117.025 75.6879 117.487 73.5769 117.487 71.5207C117.487 68.2554 115.813 66.0299 113.357 65.1587C111 64.3228 108.136 64.8047 105.714 66.3724C105.513 66.5027 105.315 66.6402 105.12 66.7849C105.027 66.4647 104.935 66.1365 104.842 65.8003C103.562 61.1385 103.329 57.2231 103.723 54.0312C104.908 55.6264 106.264 56.734 107.686 57.3178C108.995 57.8552 110.36 57.9422 111.624 57.5167C112.888 57.0915 113.944 56.1906 114.701 54.9397C116.198 52.4684 116.566 48.6127 115.342 43.7317C115.08 42.6857 114.514 41.8335 113.68 41.2823C112.857 40.7383 111.88 40.5575 110.903 40.6455C108.975 40.8192 106.894 42.0363 105.179 44.0407C104.443 44.9006 103.763 45.9158 103.176 47.0843C102.065 43.2548 101.553 38.0159 102.249 31.2292C102.882 25.053 104.218 20.6896 105.806 17.7566C105.888 18.1355 105.981 18.5155 106.084 18.8932C106.653 20.9869 107.555 23.1768 108.629 24.9861C109.665 26.7316 111.002 28.366 112.543 29.004C113.376 29.3483 114.309 29.4162 115.222 29.0015C116.095 28.6047 116.783 27.8405 117.329 26.859C119.562 22.8434 119.938 18.994 119.038 15.9673C118.144 12.9589 115.954 10.7302 113.154 10.2653C111.458 9.98382 109.696 10.3726 108.037 11.4438V2H105.537ZM110.497 97.5999C110.179 97.2155 109.859 96.8037 109.538 96.364C110.693 92.5134 112.243 90.2788 113.661 89.2538C114.433 88.6957 115.133 88.5157 115.724 88.5573C116.313 88.5989 116.924 88.87 117.508 89.4534C118.708 90.652 119.711 93.1183 119.711 96.85C119.711 99.107 119.138 100.497 118.436 101.194C117.807 101.819 116.879 102.081 115.538 101.622C114.145 101.146 112.395 99.8972 110.497 97.5999ZM109.067 76.186C108.069 74.7563 106.998 72.5596 105.923 69.3639C106.295 69.022 106.681 68.7247 107.073 68.4711C108.982 67.2354 111.039 66.9892 112.521 67.5149C113.904 68.0053 114.987 69.2309 114.987 71.5207C114.987 73.237 114.595 74.9658 113.957 76.2674C113.29 77.6298 112.521 78.2171 111.93 78.299C111.422 78.3696 110.424 78.1304 109.067 76.186ZM108.635 55.0051C107.297 54.4559 105.758 53.04 104.485 50.4938C105.139 48.4491 106.071 46.8436 107.078 45.6661C108.512 43.991 110.039 43.2335 111.127 43.1355C111.659 43.0876 112.043 43.1966 112.301 43.3678C112.55 43.5318 112.787 43.8202 112.917 44.3399C114.058 48.8899 113.575 51.9728 112.563 53.6445C112.066 54.4651 111.453 54.9367 110.827 55.1473C110.202 55.3576 109.459 55.3435 108.635 55.0051ZM108.496 18.2376C108.14 16.9274 107.95 15.7314 107.929 14.7649C109.653 12.9698 111.385 12.5059 112.744 12.7316C114.408 13.0077 115.959 14.3831 116.642 16.6797C117.319 18.958 117.107 22.1145 115.144 25.6439C114.747 26.3575 114.4 26.6289 114.188 26.7255C114.014 26.8042 113.812 26.8233 113.499 26.694C112.752 26.3845 111.765 25.3722 110.779 23.7102C109.83 22.112 109.012 20.1338 108.496 18.2376Z" fill="#F5F5F5"/>
<path d="M81.3886 2V0.5H79.8886V2H81.3886ZM81.3886 13.2036L82.8665 13.4601L82.8886 13.3328V13.2036H81.3886ZM83.8886 2H85.3886V0.5H83.8886V2ZM83.8886 11.4438H82.3886V14.1972L84.702 12.7041L83.8886 11.4438ZM89.0057 10.2653L88.76 11.7451L89.0057 10.2653ZM94.8901 15.9673L96.328 15.5399V15.5399L94.8901 15.9673ZM93.1808 26.859L91.8699 26.1299V26.1299L93.1808 26.859ZM91.0737 29.0015L91.6943 30.3671H91.6943L91.0737 29.0015ZM88.3953 29.004L87.8217 30.39H87.8217L88.3953 29.004ZM84.4806 24.9861L83.1907 25.7516V25.7516L84.4806 24.9861ZM81.9356 18.8932L83.3831 18.4998V18.4998L81.9356 18.8932ZM81.6577 17.7566L83.1238 17.4395L82.2672 13.4801L80.3386 17.0425L81.6577 17.7566ZM78.1005 31.2292L76.6083 31.0762V31.0762L78.1005 31.2292ZM79.028 47.0843L77.5873 47.5021L78.6523 51.1734L80.3683 47.7576L79.028 47.0843ZM81.0308 44.0407L79.8911 43.0655V43.0655L81.0308 44.0407ZM86.755 40.6455L86.6204 39.1516L86.755 40.6455ZM89.532 41.2823L88.7048 42.5336L89.532 41.2823ZM91.1938 43.7317L92.6488 43.3667V43.3667L91.1938 43.7317ZM90.553 54.9397L89.27 54.1626L90.553 54.9397ZM87.4762 57.5167L86.9977 56.0951H86.9977L87.4762 57.5167ZM83.5376 57.3178L84.1073 55.9302L83.5376 57.3178ZM79.5748 54.0312L80.7789 53.1368L78.5447 50.1287L78.086 53.8476L79.5748 54.0312ZM80.6941 65.8003L82.1405 65.403V65.403L80.6941 65.8003ZM80.9716 66.7849L79.5307 67.2016L80.1311 69.2782L81.8662 67.989L80.9716 66.7849ZM81.5659 66.3724L82.381 67.6317L82.381 67.6316L81.5659 66.3724ZM89.2087 65.1587L88.7073 66.5724L89.2087 65.1587ZM92.0543 77.3671L93.4014 78.027L92.0543 77.3671ZM88.1258 80.7753L88.3319 82.2611L88.1258 80.7753ZM82.8687 77.617L84.0986 76.7584L82.8687 77.617ZM79.941 71.6781L81.3471 71.1556L80.2315 68.1528L78.6394 70.9326L79.941 71.6781ZM80.6381 87.7357L82.0173 87.1459L80.6381 87.7357ZM83.6476 93.7187L82.3595 94.4874L83.9468 97.1469L85.0493 94.2526L83.6476 93.7187ZM88.0483 87.2276L88.927 88.4433H88.9271L88.0483 87.2276ZM91.7514 86.0635L91.8569 84.5673H91.8569L91.7514 86.0635ZM95.1269 87.6848L96.187 86.6236V86.6236L95.1269 87.6848ZM96.0499 102.967L94.9925 101.904V101.904L96.0499 102.967ZM90.5807 103.988L90.0951 105.407L90.5807 103.988ZM84.6291 99.4407L85.7735 98.471L83.7685 96.1047L83.1584 99.1456L84.6291 99.4407ZM83.8854 117.779L83.992 119.275L85.4882 119.169L85.3816 117.672L83.8854 117.779ZM81.3917 117.957L79.8955 118.063L80.0022 119.56L81.4984 119.453L81.3917 117.957ZM82.5774 97.1686L81.1221 96.8052V96.8052L82.5774 97.1686ZM82.6633 96.8318L84.115 97.2093L84.2856 96.5534L83.906 95.9918L82.6633 96.8318ZM78.3395 88.7187L76.9603 89.3085V89.3086L78.3395 88.7187ZM78.9412 68.7213L80.0992 69.6746L80.613 69.0506L80.3743 68.2783L78.9412 68.7213ZM78.2835 66.4627L76.8371 66.8601L78.2835 66.4627ZM77.6734 50.6958L79.1232 51.0805L79.2576 50.574L79.0474 50.0941L77.6734 50.6958ZM77.0652 49.1495L75.6503 49.6476L77.0652 49.1495ZM75.6135 30.9742L74.1213 30.8212V30.8212L75.6135 30.9742ZM80.7343 14.5281L79.5205 13.6469L79.5205 13.6469L80.7343 14.5281ZM81.3136 13.7805L82.4691 14.737L82.7659 14.3784L82.8075 13.9148L81.3136 13.7805ZM86.3484 97.5999L87.5049 96.6445L86.3484 97.5999ZM85.3895 96.364L83.9528 95.9329L83.7384 96.6472L84.1785 97.2493L85.3895 96.364ZM91.3901 101.622L91.8758 100.203H91.8758L91.3901 101.622ZM94.2875 101.194L93.23 100.13L93.23 100.13L94.2875 101.194ZM93.36 89.4534L94.4202 88.3922L93.36 89.4534ZM91.5754 88.5573L91.4698 90.0536L91.4698 90.0536L91.5754 88.5573ZM89.5128 89.2538L88.6342 88.0381L88.6341 88.0381L89.5128 89.2538ZM84.9186 76.186L83.6886 77.0446L83.6886 77.0446L84.9186 76.186ZM81.7748 69.3639L80.7594 68.2598L80.0426 68.919L80.353 69.842L81.7748 69.3639ZM87.7823 78.299L87.9884 79.7848H87.9884L87.7823 78.299ZM89.8092 76.2674L91.1563 76.9273L89.8092 76.2674ZM88.3731 67.5149L88.8745 66.1012H88.8745L88.3731 67.5149ZM82.9244 68.4711L82.1093 67.2119L82.9244 68.4711ZM84.487 55.0051L83.9174 56.3927L84.487 55.0051ZM80.3373 50.4938L78.9084 50.0373L78.7228 50.6185L78.9955 51.1642L80.3373 50.4938ZM86.6787 55.1473L86.2002 53.7257L86.2002 53.7257L86.6787 55.1473ZM88.4147 53.6445L89.6977 54.4216L89.6977 54.4216L88.4147 53.6445ZM88.769 44.3399L87.314 44.7049V44.7049L88.769 44.3399ZM88.1533 43.3678L87.3261 44.6191L87.3261 44.6191L88.1533 43.3678ZM86.9793 43.1355L87.1139 44.6294L86.9793 43.1355ZM82.9303 45.6661L81.7906 44.6909L82.9303 45.6661ZM84.3481 18.2376L85.7956 17.8443V17.8443L84.3481 18.2376ZM83.7805 14.7649L82.6986 13.7259L82.2673 14.175L82.2808 14.7975L83.7805 14.7649ZM86.6305 23.7102L87.9204 22.9446V22.9446L86.6305 23.7102ZM89.3512 26.694L88.7776 28.08L88.7776 28.08L89.3512 26.694ZM90.0394 26.7255L89.4188 25.3599L89.4187 25.3599L90.0394 26.7255ZM90.996 25.6439L89.6851 24.9148L89.6851 24.9148L90.996 25.6439ZM92.4938 16.6797L93.9316 16.2523V16.2523L92.4938 16.6797ZM88.5963 12.7316L88.8419 11.2518L88.5963 12.7316ZM41.574 7.95064L40.2141 7.31767L40.2099 7.32667L40.2058 7.33573L41.574 7.95064ZM41.5739 7.95076L42.937 8.57698L42.9421 8.56567L41.5739 7.95076ZM43.8626 2.64657L44.3802 1.23868L42.9723 0.721157L42.4548 2.12905L43.8626 2.64657ZM46.2091 3.50911L47.617 4.02663L48.1346 2.61873L46.7267 2.10121L46.2091 3.50911ZM43.8194 9.05156L42.4596 8.41838L42.4594 8.41884L43.8194 9.05156ZM43.8188 9.05281L42.4588 8.4201L42.4587 8.42029L43.8188 9.05281ZM43.8179 9.05476L45.1778 9.68793L45.1781 9.68728L43.8179 9.05476ZM43.2193 10.347L44.5829 10.9721L44.5829 10.9721L43.2193 10.347ZM41.0097 16.3897L39.5416 16.0819V16.0819L41.0097 16.3897ZM41.2948 22.103L39.8783 22.5966V22.5966L41.2948 22.103ZM45.8942 28.5762L46.9241 27.4857L46.9241 27.4857L45.8942 28.5762ZM49.1982 33.7969L50.6524 33.4292L49.1982 33.7969ZM48.8967 39.0432L50.3168 39.5262L50.3168 39.5262L48.8967 39.0432ZM42.7493 48.1657L43.8794 49.152L42.7493 48.1657ZM42.2373 48.7512L41.1085 47.7634L41.1085 47.7634L42.2373 48.7512ZM39.3172 52.2122L40.5011 53.1333L39.3172 52.2122ZM37.1043 55.7937L35.7085 55.2442V55.2442L37.1043 55.7937ZM36.8983 58.5756L35.4809 59.0664L35.4809 59.0664L36.8983 58.5756ZM39.4141 61.3088L38.6008 62.5691H38.6008L39.4141 61.3088ZM46.0313 70.2855L47.5309 70.3189L46.0313 70.2855ZM44.8648 74.8688L43.4792 74.2943L44.8648 74.8688ZM43.6605 77.5643L42.2981 76.9366L42.295 76.9436L43.6605 77.5643ZM43.6604 77.5645L45.024 78.1895L45.0259 78.1852L43.6604 77.5645ZM43.6601 77.5651L45.0225 78.1927L45.0237 78.1901L43.6601 77.5651ZM42.5727 79.9692L41.1976 79.3699L42.5727 79.9692ZM39.0258 94.9939L40.5247 95.0504L39.0258 94.9939ZM44.108 121.205L44.6298 122.612L46.0361 122.09L45.5143 120.684L44.108 121.205ZM41.7641 122.075L40.3578 122.597L40.8797 124.003L42.286 123.481L41.7641 122.075ZM36.5276 94.8999L35.0286 94.8434L36.5276 94.8999ZM40.2809 78.9704L38.9058 78.3712L40.2809 78.9704ZM41.4285 76.4338L40.0703 75.7972L40.0669 75.8044L41.4285 76.4338ZM41.4286 76.4334L40.087 75.7626L40.0785 75.7796L40.0704 75.7968L41.4286 76.4334ZM41.4287 76.4334L42.7703 77.1042L42.7806 77.0836L42.7902 77.0628L41.4287 76.4334ZM42.5555 73.9113L43.9411 74.4858L42.5555 73.9113ZM43.5319 70.2298L42.0323 70.1964L43.5319 70.2298ZM38.0586 63.4094L37.2453 64.6697L38.0586 63.4094ZM34.536 59.3937L35.9534 58.9028V58.9028L34.536 59.3937ZM34.778 54.8779L33.3823 54.3284L33.3823 54.3284L34.778 54.8779ZM37.3439 50.6772L36.16 49.7562L37.3439 50.6772ZM40.3624 47.0975L39.2412 46.1009L39.2337 46.1095L40.3624 47.0975ZM40.3625 47.0974L41.4836 48.0939L41.4912 48.0853L40.3625 47.0974ZM40.8658 46.5218L39.7357 45.5354L40.8658 46.5218ZM46.5298 38.2383L47.9499 38.7213V38.7213L46.5298 38.2383ZM46.7745 34.4098L48.2287 34.0421L48.2287 34.0421L46.7745 34.4098ZM44.1776 30.3937L45.2076 29.3032L44.1776 30.3937ZM38.934 22.9257L37.5176 23.4194V23.4194L38.934 22.9257ZM38.5629 15.8766L37.0948 15.5688V15.5688L38.5629 15.8766ZM40.9467 9.30525L39.5831 8.68019L39.5831 8.6802L40.9467 9.30525ZM41.5734 7.95202L40.2161 7.31332L40.2135 7.31906L41.5734 7.95202ZM41.5736 7.95149L42.9309 8.59021L42.9367 8.57768L41.5736 7.95149ZM61.5224 7.95081L60.2449 7.16466L60.1966 7.24325L60.1582 7.32717L61.5224 7.95081ZM61.5224 7.95086L62.8779 8.59312L62.8823 8.58384L62.8866 8.5745L61.5224 7.95086ZM61.5224 7.95077L62.7999 8.73692L62.8456 8.66272L62.8823 8.58374L61.5224 7.95077ZM63.8111 2.64657L64.3287 1.23868L62.9208 0.721157L62.4032 2.12905L63.8111 2.64657ZM66.1576 3.50911L67.5655 4.02663L68.0831 2.61873L66.6752 2.10121L66.1576 3.50911ZM63.768 9.05151L65.0665 9.80244L65.0997 9.74492L65.1278 9.68468L63.768 9.05151ZM63.7679 9.05154L62.4694 8.30061L62.4362 8.35813L62.4081 8.41837L63.7679 9.05154ZM63.1678 10.347L61.8042 9.72196V9.72196L63.1678 10.347ZM60.9582 16.3897L62.4262 16.6976V16.6976L60.9582 16.3897ZM61.2433 22.103L62.6597 21.6093V21.6093L61.2433 22.103ZM65.8427 28.5762L66.8726 27.4857V27.4857L65.8427 28.5762ZM69.1467 33.7969L67.6925 34.1647V34.1647L69.1467 33.7969ZM68.8452 39.0432L67.4251 38.5603V38.5603L68.8452 39.0432ZM62.6978 48.1657L63.8279 49.152H63.8279L62.6978 48.1657ZM62.1858 48.7513L63.3069 49.7479L63.3146 49.7391L62.1858 48.7513ZM62.1857 48.7514L61.0645 47.7548L61.0568 47.7636L62.1857 48.7514ZM62.1856 48.7515L63.3144 49.7393L63.3145 49.7393L62.1856 48.7515ZM59.2657 52.2122L60.4496 53.1333L59.2657 52.2122ZM57.0528 55.7937L55.657 55.2442V55.2442L57.0528 55.7937ZM56.8468 58.5756L58.2642 58.0847L56.8468 58.5756ZM59.3626 61.3088L58.5493 62.5691L59.3626 61.3088ZM65.9798 70.2855L64.4802 70.252V70.2521L65.9798 70.2855ZM64.8133 74.8688L63.4277 74.2943L63.4277 74.2943L64.8133 74.8688ZM63.609 77.5643L62.2466 76.9366L62.2434 76.9436L63.609 77.5643ZM63.6089 77.5645L64.9725 78.1895L64.9744 78.1852L63.6089 77.5645ZM63.6086 77.5651L64.971 78.1927L64.9722 78.1901L63.6086 77.5651ZM62.5212 79.9692L61.1461 79.3699L62.5212 79.9692ZM58.9743 94.9939L57.4753 94.9375V94.9375L58.9743 94.9939ZM64.0565 121.205L64.5783 122.612L65.9846 122.09L65.4628 120.684L64.0565 121.205ZM61.7126 122.075L60.3063 122.597L60.8282 124.003L62.2345 123.481L61.7126 122.075ZM56.4761 94.8999L54.9771 94.8434V94.8434L56.4761 94.8999ZM60.2294 78.9704L58.8543 78.3712L60.2294 78.9704ZM61.3771 76.4335L62.7387 77.0629V77.0629L61.3771 76.4335ZM62.504 73.9113L61.1184 73.3367H61.1184L62.504 73.9113ZM63.4804 70.2298L64.98 70.2632L63.4804 70.2298ZM58.0071 63.4094L58.8204 62.149L58.0071 63.4094ZM54.4845 59.3937L53.0671 59.8845L54.4845 59.3937ZM54.7265 54.8779L53.3308 54.3284L54.7265 54.8779ZM57.2924 50.6772L56.1085 49.7562L57.2924 50.6772ZM60.3109 47.0975L59.1897 46.1009L59.1822 46.1095L60.3109 47.0975ZM60.311 47.0974L61.4321 48.0939L61.4397 48.0853L60.311 47.0974ZM60.8143 46.5218L59.6842 45.5354L59.6842 45.5354L60.8143 46.5218ZM66.4783 38.2383L67.8984 38.7213V38.7213L66.4783 38.2383ZM66.723 34.4098L65.2688 34.7776V34.7776L66.723 34.4098ZM64.1261 30.3937L65.156 29.3032L64.1261 30.3937ZM58.8825 22.9257L60.299 22.4321V22.4321L58.8825 22.9257ZM58.5114 15.8766L59.9795 16.1845V16.1845L58.5114 15.8766ZM60.8952 9.30525L59.5316 8.68019V8.6802L60.8952 9.30525ZM61.5221 7.95149L60.1665 7.30921L60.1622 7.31853L61.5221 7.95149ZM4.28906 121.64V123.14H5.78906V121.64H4.28906ZM4.28906 3.07784H5.78906V1.57784H4.28906V3.07784ZM1.78906 121.64H0.289062V123.14H1.78906V121.64ZM1.78906 3.07784V1.57784H0.289062V3.07784H1.78906ZM21.0878 121.64V123.14H22.5878V121.64H21.0878ZM21.0878 3.07784H22.5878V1.57784H21.0878V3.07784ZM18.5878 121.64H17.0878V123.14H18.5878V121.64ZM18.5878 3.07784V1.57784H17.0878V3.07784H18.5878ZM105.537 13.2036L107.015 13.4601L107.037 13.3328V13.2036H105.537ZM105.537 2V0.5H104.037V2H105.537ZM105.462 13.7805L106.617 14.737L106.914 14.3784L106.956 13.9148L105.462 13.7805ZM104.883 14.5281L103.669 13.6469L103.669 13.6469L104.883 14.5281ZM99.7617 30.9742L98.2695 30.8212V30.8212L99.7617 30.9742ZM101.213 49.1495L99.7984 49.6476L101.213 49.1495ZM101.822 50.6958L103.271 51.0805L103.406 50.574L103.196 50.0941L101.822 50.6958ZM102.432 66.4627L100.985 66.8601L102.432 66.4627ZM103.089 68.7213L104.247 69.6746L104.761 69.0506L104.522 68.2783L103.089 68.7213ZM102.488 88.7187L101.108 89.3085V89.3086L102.488 88.7187ZM106.811 96.8318L108.263 97.2093L108.434 96.5534L108.054 95.9918L106.811 96.8318ZM106.726 97.1686L105.27 96.8052V96.8052L106.726 97.1686ZM105.54 117.957L104.044 118.063L104.15 119.56L105.647 119.453L105.54 117.957ZM108.034 117.779L108.14 119.275L109.636 119.169L109.53 117.672L108.034 117.779ZM108.777 99.4407L109.922 98.471L107.917 96.1047L107.307 99.1456L108.777 99.4407ZM114.729 103.988L114.243 105.407L114.729 103.988ZM120.198 102.967L119.141 101.904V101.904L120.198 102.967ZM119.275 87.6848L120.335 86.6236V86.6236L119.275 87.6848ZM115.9 86.0635L116.005 84.5673H116.005L115.9 86.0635ZM112.197 87.2276L113.075 88.4433H113.075L112.197 87.2276ZM107.796 93.7187L106.508 94.4874L108.095 97.1469L109.197 94.2526L107.796 93.7187ZM104.786 87.7357L106.165 87.1459L104.786 87.7357ZM104.089 71.6781L105.495 71.1556L104.38 68.1528L102.788 70.9326L104.089 71.6781ZM107.017 77.617L108.247 76.7584L107.017 77.617ZM112.274 80.7753L112.48 82.2611L112.274 80.7753ZM116.202 77.3671L117.55 78.027L116.202 77.3671ZM113.357 65.1587L112.856 66.5724L113.357 65.1587ZM105.714 66.3724L106.529 67.6317L106.529 67.6316L105.714 66.3724ZM105.12 66.7849L103.679 67.2016L104.279 69.2782L106.014 67.989L105.12 66.7849ZM104.842 65.8003L106.289 65.403V65.403L104.842 65.8003ZM103.723 54.0312L104.927 53.1368L102.693 50.1287L102.234 53.8476L103.723 54.0312ZM107.686 57.3178L108.255 55.9302L107.686 57.3178ZM111.624 57.5167L111.146 56.0951H111.146L111.624 57.5167ZM114.701 54.9397L113.418 54.1626L114.701 54.9397ZM115.342 43.7317L116.797 43.3667V43.3667L115.342 43.7317ZM113.68 41.2823L112.853 42.5336L113.68 41.2823ZM110.903 40.6455L110.769 39.1516L110.903 40.6455ZM105.179 44.0407L104.039 43.0655V43.0655L105.179 44.0407ZM103.176 47.0843L101.736 47.5021L102.8 51.1734L104.516 47.7576L103.176 47.0843ZM102.249 31.2292L100.756 31.0762V31.0762L102.249 31.2292ZM105.806 17.7566L107.272 17.4395L106.415 13.4801L104.487 17.0425L105.806 17.7566ZM106.084 18.8932L107.531 18.4998V18.4998L106.084 18.8932ZM108.629 24.9861L107.339 25.7516V25.7516L108.629 24.9861ZM112.543 29.004L111.97 30.39H111.97L112.543 29.004ZM115.222 29.0015L115.842 30.3671H115.842L115.222 29.0015ZM117.329 26.859L116.018 26.1299V26.1299L117.329 26.859ZM119.038 15.9673L120.476 15.5399V15.5399L119.038 15.9673ZM113.154 10.2653L112.908 11.7451L113.154 10.2653ZM108.037 11.4438H106.537V14.1972L108.85 12.7041L108.037 11.4438ZM108.037 2H109.537V0.5H108.037V2ZM109.538 96.364L108.101 95.9329L107.887 96.6472L108.327 97.2493L109.538 96.364ZM110.497 97.5999L111.653 96.6445L110.497 97.5999ZM113.661 89.2538L112.782 88.0381L112.782 88.0381L113.661 89.2538ZM115.724 88.5573L115.618 90.0536L115.618 90.0536L115.724 88.5573ZM117.508 89.4534L118.568 88.3922L117.508 89.4534ZM118.436 101.194L117.378 100.13L117.378 100.13L118.436 101.194ZM115.538 101.622L116.024 100.203H116.024L115.538 101.622ZM105.923 69.3639L104.908 68.2598L104.191 68.919L104.501 69.842L105.923 69.3639ZM109.067 76.186L107.837 77.0446L107.837 77.0446L109.067 76.186ZM107.073 68.4711L106.257 67.2119L107.073 68.4711ZM112.521 67.5149L113.023 66.1012H113.023L112.521 67.5149ZM113.957 76.2674L115.304 76.9273L113.957 76.2674ZM111.93 78.299L112.137 79.7848H112.137L111.93 78.299ZM104.485 50.4938L103.057 50.0373L102.871 50.6185L103.144 51.1642L104.485 50.4938ZM108.635 55.0051L108.066 56.3927L108.635 55.0051ZM107.078 45.6661L105.939 44.6909L107.078 45.6661ZM111.127 43.1355L111.262 44.6294L111.127 43.1355ZM112.301 43.3678L111.474 44.6191L111.474 44.6191L112.301 43.3678ZM112.917 44.3399L111.462 44.7049V44.7049L112.917 44.3399ZM112.563 53.6445L113.846 54.4216L113.846 54.4216L112.563 53.6445ZM110.827 55.1473L110.348 53.7257L110.348 53.7257L110.827 55.1473ZM107.929 14.7649L106.847 13.7259L106.415 14.175L106.429 14.7975L107.929 14.7649ZM108.496 18.2376L109.944 17.8443V17.8443L108.496 18.2376ZM112.744 12.7316L112.99 11.2518L112.744 12.7316ZM116.642 16.6797L118.08 16.2523V16.2523L116.642 16.6797ZM115.144 25.6439L113.833 24.9148L113.833 24.9148L115.144 25.6439ZM114.188 26.7255L113.567 25.3599L113.567 25.3599L114.188 26.7255ZM113.499 26.694L112.926 28.08L112.926 28.08L113.499 26.694ZM110.779 23.7102L112.069 22.9446V22.9446L110.779 23.7102ZM79.8886 2V13.2036H82.8886V2H79.8886ZM83.8886 0.5H81.3886V3.5H83.8886V0.5ZM85.3886 11.4438V2H82.3886V11.4438H85.3886ZM89.2514 8.78561C87.1471 8.43623 85.012 8.93342 83.0751 10.1835L84.702 12.7041C86.0846 11.8117 87.473 11.5314 88.76 11.7451L89.2514 8.78561ZM96.328 15.5399C95.3075 12.1069 92.7358 9.36412 89.2514 8.78561L88.76 11.7451C90.8757 12.0963 92.6842 13.8108 93.4523 16.3947L96.328 15.5399ZM94.4917 27.588C96.887 23.2812 97.3612 19.016 96.328 15.5399L93.4523 16.3947C94.2184 18.9721 93.9411 22.4057 91.8699 26.1299L94.4917 27.588ZM91.6943 30.3671C92.9644 29.7899 93.8568 28.7296 94.4917 27.588L91.8699 26.1299C91.413 26.9514 90.9294 27.4195 90.4531 27.6359L91.6943 30.3671ZM87.8217 30.39C88.9637 30.8626 90.3366 30.9841 91.6943 30.3671L90.4531 27.6359C89.9857 27.8484 89.491 27.8341 88.9688 27.618L87.8217 30.39ZM83.1907 25.7516C84.2568 27.5479 85.8042 29.5551 87.8217 30.39L88.9688 27.618C87.9031 27.177 86.7763 25.9152 85.7705 24.2205L83.1907 25.7516ZM80.4881 19.2865C81.0892 21.4987 82.0417 23.8156 83.1907 25.7516L85.7705 24.2205C84.7719 22.5379 83.9198 20.475 83.3831 18.4998L80.4881 19.2865ZM80.1916 18.0738C80.2795 18.4798 80.379 18.8853 80.4881 19.2865L83.3831 18.4998C83.2869 18.1458 83.1999 17.7912 83.1238 17.4395L80.1916 18.0738ZM79.5927 31.3822C80.2128 25.3339 81.5112 21.178 82.9768 18.4708L80.3386 17.0425C78.6286 20.2012 77.2547 24.7722 76.6083 31.0762L79.5927 31.3822ZM80.4686 46.6664C79.4232 43.0626 78.9116 38.024 79.5927 31.3822L76.6083 31.0762C75.8976 38.0078 76.411 43.447 77.5873 47.5021L80.4686 46.6664ZM79.8911 43.0655C79.0731 44.0214 78.3267 45.1388 77.6876 46.4109L80.3683 47.7576C80.9033 46.6928 81.5169 45.7797 82.1705 45.0159L79.8911 43.0655ZM86.6204 39.1516C84.1878 39.3707 81.7747 40.8642 79.8911 43.0655L82.1705 45.0159C83.7172 43.2084 85.4658 42.2678 86.8896 42.1395L86.6204 39.1516ZM90.3592 40.031C89.1975 39.263 87.8641 39.0396 86.6204 39.1516L86.8896 42.1395C87.6001 42.0755 88.2209 42.2137 88.7048 42.5336L90.3592 40.031ZM92.6488 43.3667C92.3074 42.0059 91.545 40.8149 90.3592 40.031L88.7048 42.5336C89.1865 42.8521 89.5555 43.3656 89.7389 44.0966L92.6488 43.3667ZM91.836 55.7168C93.6237 52.7654 93.9228 48.4458 92.6488 43.3667L89.7389 44.0966C90.9136 48.7797 90.476 52.1715 89.27 54.1626L91.836 55.7168ZM87.9548 58.9383C89.6009 58.3842 90.9222 57.2254 91.836 55.7168L89.27 54.1626C88.6684 55.1558 87.8779 55.7988 86.9977 56.0951L87.9548 58.9383ZM82.9679 58.7054C84.5674 59.3621 86.3064 59.4931 87.9548 58.9383L86.9977 56.0951C86.1177 56.3913 85.1258 56.3484 84.1073 55.9302L82.9679 58.7054ZM78.3706 54.9256C79.6793 56.6876 81.2393 57.9958 82.9679 58.7054L84.1073 55.9302C82.9917 55.4722 81.8398 54.5651 80.7789 53.1368L78.3706 54.9256ZM82.1405 65.403C80.9043 60.9032 80.697 57.1863 81.0635 54.2148L78.086 53.8476C77.6652 57.26 77.9224 61.3738 79.2477 66.1977L82.1405 65.403ZM82.4126 66.3683C82.3219 66.0546 82.2312 65.7329 82.1405 65.403L79.2477 66.1977C79.3418 66.5402 79.4362 66.8748 79.5307 67.2016L82.4126 66.3683ZM80.7508 65.1132C80.5224 65.261 80.2977 65.417 80.077 65.5809L81.8662 67.989C82.0351 67.8635 82.2068 67.7444 82.381 67.6317L80.7508 65.1132ZM89.7102 63.745C86.8276 62.7226 83.4794 63.347 80.7508 65.1132L82.381 67.6316C84.4962 66.2625 86.8763 65.923 88.7073 66.5724L89.7102 63.745ZM94.8384 71.5207C94.8384 67.6718 92.8122 64.8452 89.7102 63.745L88.7073 66.5724C90.518 67.2146 91.8384 68.8391 91.8384 71.5207H94.8384ZM93.4014 78.027C94.335 76.1211 94.8384 73.7808 94.8384 71.5207H91.8384C91.8384 73.373 91.4188 75.2547 90.7072 76.7073L93.4014 78.027ZM88.3319 82.2611C90.92 81.902 92.5353 79.7952 93.4014 78.027L90.7072 76.7073C89.9877 78.1763 89.0063 79.1388 87.9197 79.2895L88.3319 82.2611ZM81.6387 78.4756C83.2943 80.8474 85.562 82.6453 88.3319 82.2611L87.9197 79.2895C86.8514 79.4377 85.536 78.8174 84.0986 76.7584L81.6387 78.4756ZM78.535 72.2005C79.5184 74.8476 80.5537 76.9213 81.6387 78.4756L84.0986 76.7584C83.2061 75.4798 82.2763 73.6564 81.3471 71.1556L78.535 72.2005ZM82.0173 87.1459C78.9541 79.9832 79.6425 75.2174 81.2427 72.4235L78.6394 70.9326C76.4408 74.7713 75.9432 80.5721 79.2589 88.3255L82.0173 87.1459ZM84.9356 92.9499C83.9581 91.3121 82.9748 89.3848 82.0173 87.1459L79.2589 88.3255C80.263 90.6735 81.3058 92.722 82.3595 94.4874L84.9356 92.9499ZM87.1696 86.012C85.1477 87.4734 83.4841 89.9338 82.2458 93.1847L85.0493 94.2526C86.1678 91.3162 87.547 89.4408 88.927 88.4433L87.1696 86.012ZM91.8569 84.5673C90.1672 84.448 88.5574 85.0089 87.1696 86.012L88.9271 88.4433C89.8537 87.7735 90.7811 87.4988 91.6458 87.5598L91.8569 84.5673ZM96.187 86.6236C95.0313 85.469 93.5502 84.6867 91.8569 84.5673L91.6458 87.5598C92.5101 87.6208 93.3392 88.0192 94.0668 88.746L96.187 86.6236ZM99.5625 96.85C99.5625 92.5574 98.4302 88.8645 96.187 86.6236L94.0668 88.746C95.5269 90.2046 96.5625 92.9771 96.5625 96.85H99.5625ZM97.1074 104.031C98.8711 102.278 99.5625 99.6437 99.5625 96.85H96.5625C96.5625 99.2427 95.9591 100.943 94.9925 101.904L97.1074 104.031ZM90.0951 105.407C92.5586 106.25 95.1802 105.947 97.1074 104.031L94.9925 101.904C94.0424 102.848 92.6927 103.125 91.0664 102.568L90.0951 105.407ZM83.4846 100.41C85.5757 102.878 87.8205 104.629 90.0951 105.407L91.0664 102.568C89.4896 102.029 87.6679 100.707 85.7735 98.471L83.4846 100.41ZM85.3816 117.672C84.8357 110.013 85.2225 104.108 86.0997 99.7358L83.1584 99.1456C82.2153 103.846 81.8293 110.031 82.3892 117.886L85.3816 117.672ZM81.4984 119.453L83.992 119.275L83.7788 116.283L81.2851 116.461L81.4984 119.453ZM81.1221 96.8052C79.8217 102.013 79.2515 109.028 79.8955 118.063L82.8879 117.85C82.2593 109.03 82.8302 102.348 84.0327 97.532L81.1221 96.8052ZM81.2115 96.4543C81.1813 96.5704 81.1515 96.6874 81.1221 96.8052L84.0327 97.532C84.0598 97.4236 84.0872 97.316 84.115 97.2093L81.2115 96.4543ZM76.9603 89.3086C78.3716 92.6086 79.8778 95.3895 81.4205 97.6718L83.906 95.9918C82.4865 93.8918 81.0677 91.2835 79.7187 88.1289L76.9603 89.3086ZM77.7831 67.7679C74.0557 72.2958 72.8622 79.7257 76.9603 89.3085L79.7187 88.1289C75.9206 79.2477 77.2861 73.0918 80.0992 69.6746L77.7831 67.7679ZM76.8371 66.8601C77.0582 67.6648 77.2819 68.4325 77.5081 69.1642L80.3743 68.2783C80.1581 67.5788 79.9432 66.8416 79.7299 66.0653L76.8371 66.8601ZM76.2235 50.3112C75.0639 54.6826 75.0146 60.2269 76.8371 66.8601L79.7299 66.0653C78.0239 59.8561 78.1212 54.8578 79.1232 51.0805L76.2235 50.3112ZM75.6503 49.6476C75.8519 50.2205 76.0686 50.7708 76.2994 51.2976L79.0474 50.0941C78.8476 49.638 78.658 49.1571 78.4801 48.6515L75.6503 49.6476ZM74.1213 30.8212C73.3042 38.7911 74.0299 45.0445 75.6503 49.6476L78.4801 48.6515C77.0429 44.5688 76.321 38.7804 77.1057 31.1272L74.1213 30.8212ZM79.5205 13.6469C76.8986 17.2586 74.9359 22.8775 74.1213 30.8212L77.1057 31.1272C77.8907 23.4716 79.7525 18.434 81.9482 15.4094L79.5205 13.6469ZM80.1581 12.824C79.9407 13.0866 79.7281 13.3609 79.5205 13.6469L81.9482 15.4094C82.1196 15.1732 82.2934 14.9492 82.4691 14.737L80.1581 12.824ZM79.9107 12.9471C79.8707 13.1774 79.8408 13.4108 79.8196 13.6461L82.8075 13.9148C82.822 13.7543 82.8417 13.6027 82.8665 13.4601L79.9107 12.9471ZM87.5049 96.6445C87.2071 96.2841 86.9053 95.8958 86.6004 95.4788L84.1785 97.2493C84.5165 97.7116 84.8547 98.1468 85.192 98.5552L87.5049 96.6445ZM91.8758 100.203C90.8421 99.8494 89.3061 98.8248 87.5049 96.6445L85.192 98.5552C87.1867 100.97 89.1516 102.442 90.9045 103.042L91.8758 100.203ZM93.23 100.13C93.1139 100.246 92.9948 100.311 92.8397 100.338C92.67 100.369 92.3661 100.371 91.8758 100.203L90.9045 103.042C91.7552 103.333 92.5858 103.433 93.3725 103.291C94.1737 103.146 94.8327 102.767 95.345 102.258L93.23 100.13ZM94.0625 96.85C94.0625 98.9036 93.5347 99.8276 93.23 100.13L95.345 102.258C96.444 101.166 97.0625 99.3104 97.0625 96.85H94.0625ZM92.2999 90.5146C93.109 91.3229 94.0625 93.3299 94.0625 96.85H97.0625C97.0625 92.9067 96.0105 89.981 94.4202 88.3922L92.2999 90.5146ZM91.4698 90.0536C91.646 90.066 91.9314 90.1465 92.2999 90.5146L94.4202 88.3922C93.6207 87.5936 92.6827 87.1317 91.681 87.0611L91.4698 90.0536ZM90.3915 90.4695C90.9315 90.0792 91.2902 90.0409 91.4698 90.0536L91.681 87.0611C90.6795 86.9904 89.6383 87.3123 88.6342 88.0381L90.3915 90.4695ZM86.8261 96.7952C87.9357 93.0978 89.3514 91.2213 90.3916 90.4695L88.6341 88.0381C86.838 89.3364 85.1543 91.929 83.9528 95.9329L86.8261 96.7952ZM86.1486 75.3274C85.2631 74.0589 84.2469 72.009 83.1965 68.8857L80.353 69.842C81.4521 73.1102 82.5781 75.4537 83.6886 77.0446L86.1486 75.3274ZM87.5762 76.8132C87.9046 76.7677 87.3844 77.0977 86.1486 75.3274L83.6886 77.0446C85.1674 79.163 86.6421 79.9715 87.9884 79.7848L87.5762 76.8132ZM88.4621 75.6076C88.1879 76.1675 87.9281 76.4939 87.7416 76.6686C87.5487 76.8493 87.482 76.8263 87.5762 76.8132L87.9884 79.7848C89.3219 79.5998 90.4099 78.4511 91.1563 76.9273L88.4621 75.6076ZM89.3384 71.5207C89.3384 73.033 88.9888 74.5325 88.4621 75.6076L91.1563 76.9273C91.9048 75.3991 92.3384 73.441 92.3384 71.5207H89.3384ZM87.8716 68.9286C88.3011 69.0809 88.6409 69.3283 88.8828 69.685C89.1266 70.0445 89.3384 70.6152 89.3384 71.5207H92.3384C92.3384 70.1364 92.0088 68.9494 91.3656 68.0011C90.7205 67.0498 89.8275 66.4392 88.8745 66.1012L87.8716 68.9286ZM83.7394 69.7304C85.3395 68.6947 86.9131 68.5886 87.8717 68.9286L88.8745 66.1012C86.8689 65.3899 84.3275 65.7761 82.1093 67.2119L83.7394 69.7304ZM82.7901 70.468C83.1 70.183 83.4192 69.9377 83.7394 69.7304L82.1093 67.2119C81.6461 67.5117 81.193 67.861 80.7594 68.2598L82.7901 70.468ZM85.0567 53.6175C84.1592 53.249 82.8482 52.163 81.6791 49.8233L78.9955 51.1642C80.371 53.9171 82.1392 55.6627 83.9174 56.3927L85.0567 53.6175ZM86.2002 53.7257C85.9585 53.807 85.589 53.8361 85.0567 53.6175L83.9174 56.3927C85.0333 56.8509 86.1497 56.9081 87.1572 56.5689L86.2002 53.7257ZM87.1317 52.8674C86.7915 53.429 86.4441 53.6436 86.2002 53.7257L87.1572 56.5689C88.1646 56.2299 89.0438 55.5012 89.6977 54.4216L87.1317 52.8674ZM87.314 44.7049C88.4053 49.0554 87.8539 51.675 87.1317 52.8674L89.6977 54.4216C91.0005 52.2707 91.4153 48.7244 90.2239 43.9749L87.314 44.7049ZM87.3261 44.6191C87.3106 44.6088 87.2961 44.5971 87.2837 44.5849C87.2713 44.5727 87.2647 44.5637 87.2629 44.561C87.2585 44.5544 87.2854 44.5906 87.314 44.7049L90.2239 43.975C90.0138 43.1374 89.5784 42.5118 88.9805 42.1165L87.3261 44.6191ZM87.1139 44.6294C87.2464 44.6175 87.32 44.6287 87.3474 44.6347C87.3736 44.6405 87.3606 44.6419 87.3261 44.6191L88.9805 42.1165C88.3847 41.7226 87.6456 41.5694 86.8447 41.6415L87.1139 44.6294ZM84.07 46.6414C85.3335 45.1648 86.5279 44.6822 87.1139 44.6294L86.8447 41.6415C85.2533 41.7849 83.3939 42.8172 81.7906 44.6909L84.07 46.6414ZM81.7662 50.9502C82.363 49.0818 83.2018 47.656 84.07 46.6414L81.7906 44.6909C80.6436 46.0312 79.6178 47.8164 78.9084 50.0373L81.7662 50.9502ZM85.7956 17.8443C85.4617 16.6154 85.2978 15.5442 85.2801 14.7322L82.2808 14.7975C82.3052 15.9186 82.5225 17.2394 82.9006 18.631L85.7956 17.8443ZM87.9204 22.9446C87.0471 21.4731 86.2786 19.6219 85.7956 17.8443L82.9006 18.6309C83.448 20.6457 84.3169 22.7509 85.3406 24.4757L87.9204 22.9446ZM89.9247 25.3079C89.8336 25.2702 89.5732 25.113 89.18 24.6891C88.8046 24.2845 88.3727 23.7067 87.9204 22.9446L85.3406 24.4757C85.8747 25.3757 86.4292 26.135 86.9806 26.7294C87.5142 27.3046 88.121 27.8082 88.7776 28.08L89.9247 25.3079ZM89.4187 25.3599C89.505 25.3208 89.6294 25.286 89.7686 25.2879C89.8927 25.2897 89.9536 25.3199 89.9247 25.3079L88.7776 28.08C89.4091 28.3413 90.0492 28.3687 90.66 28.0911L89.4187 25.3599ZM89.6851 24.9148C89.3784 25.4662 89.236 25.443 89.4188 25.3599L90.66 28.0911C91.2678 27.8149 91.8197 27.2488 92.3069 26.3729L89.6851 24.9148ZM91.0559 17.1071C91.5998 18.9367 91.4855 21.6775 89.6851 24.9148L92.3069 26.3729C94.4322 22.5515 94.7422 18.9792 93.9316 16.2523L91.0559 17.1071ZM88.3506 14.2113C89.335 14.3748 90.5014 15.2416 91.0559 17.1071L93.9316 16.2523C93.1208 13.5247 91.1838 11.6407 88.8419 11.2518L88.3506 14.2113ZM84.8624 15.8039C86.3149 14.2914 87.5731 14.0822 88.3506 14.2113L88.8419 11.2518C86.9011 10.9296 84.6939 11.6482 82.6986 13.7259L84.8624 15.8039ZM40.2058 7.33573L40.2058 7.33586L42.9421 8.56567L42.9422 8.56554L40.2058 7.33573ZM42.4548 2.12905C41.8033 3.90138 41.0234 5.57889 40.2141 7.31767L42.9339 8.5836C43.7354 6.8616 44.569 5.07267 45.2705 3.16409L42.4548 2.12905ZM46.7267 2.10121L44.3802 1.23868L43.3451 4.05447L45.6916 4.917L46.7267 2.10121ZM45.1792 9.68474C45.9858 7.95257 46.8758 6.0432 47.617 4.02663L44.8012 2.99159C44.1101 4.87195 43.2736 6.67024 42.4596 8.41838L45.1792 9.68474ZM45.1789 9.68553L45.1795 9.68427L42.4594 8.41884L42.4588 8.4201L45.1789 9.68553ZM45.1781 9.68728L45.179 9.68533L42.4587 8.42029L42.4578 8.42224L45.1781 9.68728ZM44.5829 10.9721C44.7747 10.5535 44.9734 10.1267 45.1778 9.68793L42.4581 8.42158C42.2545 8.8589 42.052 9.29385 41.8557 9.72196L44.5829 10.9721ZM42.4777 16.6976C42.8466 14.9386 43.6038 13.1078 44.5829 10.9721L41.8557 9.72196C40.8711 11.8699 39.9853 13.9659 39.5416 16.0819L42.4777 16.6976ZM42.7112 21.6093C42.1408 19.9725 42.122 18.3941 42.4777 16.6976L39.5416 16.0819C39.0967 18.2035 39.0951 20.3492 39.8783 22.5966L42.7112 21.6093ZM46.9241 27.4857C44.5211 25.2161 43.2928 23.2781 42.7112 21.6093L39.8783 22.5966C40.6606 24.8412 42.2192 27.1686 44.8642 29.6667L46.9241 27.4857ZM50.6524 33.4292C50.1108 31.2873 48.855 29.3093 46.9241 27.4857L44.8642 29.6667C46.4785 31.1913 47.3718 32.6929 47.744 34.1647L50.6524 33.4292ZM50.3168 39.5262C50.9577 37.6418 51.1957 35.5773 50.6524 33.4292L47.744 34.1647C48.116 35.6358 47.9732 37.1001 47.4766 38.5603L50.3168 39.5262ZM43.8794 49.152C46.2472 46.4391 49.0945 43.1207 50.3168 39.5262L47.4766 38.5603C46.478 41.4967 44.0659 44.376 41.6192 47.1793L43.8794 49.152ZM43.3661 49.7391C43.5355 49.5455 43.707 49.3496 43.8794 49.152L41.6192 47.1793C41.4483 47.3752 41.2781 47.5696 41.1085 47.7634L43.3661 49.7391ZM40.5011 53.1333C41.339 52.0561 42.3099 50.946 43.3661 49.7391L41.1085 47.7634C40.0655 48.9553 39.0343 50.1329 38.1332 51.2912L40.5011 53.1333ZM38.5 56.3432C38.8516 55.45 39.5187 54.3961 40.5011 53.1333L38.1332 51.2912C37.0908 52.6312 36.2171 53.9524 35.7085 55.2442L38.5 56.3432ZM38.3158 58.0847C38.1867 57.7122 38.1647 57.1948 38.5 56.3432L35.7085 55.2442C35.198 56.5409 35.0501 57.8224 35.4809 59.0664L38.3158 58.0847ZM40.2274 60.0484C38.8781 59.1777 38.4548 58.4862 38.3157 58.0847L35.4809 59.0664C35.911 60.3083 36.9046 61.4746 38.6008 62.5691L40.2274 60.0484ZM47.5309 70.3189C47.6216 66.2503 45.0359 63.1512 40.2274 60.0484L38.6008 62.5691C43.1768 65.522 44.586 67.8124 44.5317 70.252L47.5309 70.3189ZM46.2505 75.4433C46.9073 73.8591 47.4905 72.1313 47.5309 70.3189L44.5317 70.252C44.504 71.493 44.0983 72.8014 43.4792 74.2943L46.2505 75.4433ZM45.0229 78.1919C45.463 77.2365 45.8996 76.2896 46.2505 75.4433L43.4792 74.2943C43.1551 75.0761 42.7451 75.9665 42.2981 76.9366L45.0229 78.1919ZM45.0259 78.1852L45.0261 78.185L42.295 76.9436L42.2948 76.9438L45.0259 78.1852ZM45.0237 78.1901L45.024 78.1895L42.2968 76.9396L42.2965 76.9401L45.0237 78.1901ZM43.9478 80.5684C44.293 79.7763 44.6606 78.9782 45.0225 78.1927L42.2978 76.9374C41.9381 77.7181 41.5573 78.5445 41.1976 79.3699L43.9478 80.5684ZM40.5247 95.0504C40.7618 88.7544 42.3569 84.2191 43.9478 80.5684L41.1976 79.3699C39.5168 83.2269 37.7827 88.1426 37.5269 94.9375L40.5247 95.0504ZM45.5143 120.684C41.4134 109.633 40.2867 101.373 40.5247 95.0504L37.5269 94.9375C37.2711 101.73 38.493 110.386 42.7017 121.727L45.5143 120.684ZM42.286 123.481L44.6298 122.612L43.5861 119.799L41.2423 120.669L42.286 123.481ZM35.0286 94.8434C34.7581 102.028 36.0593 111.013 40.3578 122.597L43.1704 121.553C38.9797 110.26 37.7737 101.67 38.0265 94.9563L35.0286 94.8434ZM38.9058 78.3712C37.15 82.4001 35.3001 87.6327 35.0286 94.8434L38.0265 94.9563C38.2792 88.2445 39.9902 83.3923 41.656 79.5697L38.9058 78.3712ZM40.0669 75.8044C39.7125 76.5712 39.3238 77.4119 38.9058 78.3712L41.656 79.5697C42.0591 78.6445 42.4348 77.8316 42.79 77.0632L40.0669 75.8044ZM40.0704 75.7968L40.0703 75.7972L42.7867 77.0705L42.7868 77.0701L40.0704 75.7968ZM40.087 75.7626L40.087 75.7626L42.7703 77.1043L42.7703 77.1042L40.087 75.7626ZM41.1699 73.3367C40.8435 74.1238 40.4815 74.9075 40.0671 75.804L42.7902 77.0628C43.1997 76.1769 43.5878 75.3379 43.9411 74.4858L41.1699 73.3367ZM42.0323 70.1964C42.0153 70.96 41.7582 71.9178 41.1699 73.3367L43.9411 74.4858C44.5663 72.978 45.0018 71.5996 45.0316 70.2632L42.0323 70.1964ZM37.2453 64.6697C41.6181 67.4914 42.0566 69.1077 42.0323 70.1964L45.0316 70.2632C45.0919 67.5532 43.4882 65.1278 38.8719 62.149L37.2453 64.6697ZM33.1186 59.8845C33.7919 61.8287 35.2625 63.3903 37.2453 64.6697L38.8719 62.149C37.2335 61.0918 36.335 60.0046 35.9534 58.9028L33.1186 59.8845ZM33.3823 54.3284C32.7276 55.9913 32.435 57.9107 33.1186 59.8845L35.9534 58.9028C35.5728 57.8039 35.6925 56.6498 36.1738 55.4273L33.3823 54.3284ZM36.16 49.7562C35.0668 51.1614 34.0214 52.705 33.3823 54.3284L36.1738 55.4273C36.6562 54.202 37.4955 52.9253 38.5279 51.5982L36.16 49.7562ZM39.2337 46.1095C38.1941 47.2972 37.1092 48.5361 36.16 49.7562L38.5279 51.5982C39.414 50.4591 40.4391 49.2873 41.4911 48.0854L39.2337 46.1095ZM39.2414 46.1008L39.2413 46.1009L41.4835 48.094L41.4836 48.0939L39.2414 46.1008ZM39.7357 45.5354C39.5694 45.726 39.4021 45.9171 39.2338 46.1094L41.4912 48.0853C41.6593 47.8932 41.828 47.7005 41.9959 47.5081L39.7357 45.5354ZM45.1097 37.7554C44.2983 40.1415 42.2522 42.6521 39.7357 45.5354L41.9959 47.5081C44.429 44.7204 46.914 41.7676 47.9499 38.7213L45.1097 37.7554ZM45.3203 34.7776C45.5499 35.6854 45.4857 36.6496 45.1097 37.7554L47.9499 38.7213C48.4706 37.1902 48.6293 35.626 48.2287 34.0421L45.3203 34.7776ZM43.1477 31.4842C44.4975 32.7591 45.0891 33.8635 45.3203 34.7776L48.2287 34.0421C47.8283 32.4587 46.8746 30.8777 45.2076 29.3032L43.1477 31.4842ZM37.5176 23.4194C38.4672 26.144 40.3011 28.7958 43.1477 31.4842L45.2076 29.3032C42.6029 26.8431 41.0993 24.5807 40.3505 22.4321L37.5176 23.4194ZM37.0948 15.5688C36.5757 18.0441 36.5568 20.6626 37.5176 23.4194L40.3505 22.4321C39.6027 20.2864 39.6009 18.2353 40.031 16.1845L37.0948 15.5688ZM39.5831 8.6802C38.5933 10.8396 37.6008 13.1559 37.0948 15.5688L40.031 16.1845C40.4622 14.128 41.3266 12.0762 42.3103 9.93031L39.5831 8.6802ZM40.2135 7.31906C40.004 7.76906 39.7925 8.22346 39.5831 8.68019L42.3102 9.93032C42.5154 9.48281 42.7232 9.03629 42.9333 8.58499L40.2135 7.31906ZM40.2164 7.31279L40.2161 7.31333L42.9306 8.59072L42.9308 8.59018L40.2164 7.31279ZM40.2109 7.32457L40.2106 7.3253L42.9367 8.57768L42.937 8.57695L40.2109 7.32457ZM60.1582 7.32717L60.1582 7.32722L62.8866 8.5745L62.8866 8.57445L60.1582 7.32717ZM60.2449 7.16463L60.2449 7.16466L62.7999 8.73696L62.7999 8.73692L60.2449 7.16463ZM62.4032 2.12905C61.7518 3.90143 60.9719 5.57898 60.1625 7.31781L62.8823 8.58374C63.6839 6.86169 64.5175 5.07272 65.219 3.16409L62.4032 2.12905ZM66.6752 2.10121L64.3287 1.23868L63.2936 4.05447L65.6401 4.917L66.6752 2.10121ZM65.1278 9.68468C65.9343 7.95253 66.8243 6.04318 67.5655 4.02663L64.7497 2.99159C64.0586 4.87193 63.2221 6.67021 62.4081 8.41833L65.1278 9.68468ZM65.0664 9.80248L65.0665 9.80244L62.4695 8.30057L62.4694 8.30061L65.0664 9.80248ZM64.5314 10.9721C64.7237 10.5525 64.9229 10.1246 65.1277 9.68472L62.4081 8.41837C62.204 8.85678 62.0009 9.29281 61.8042 9.72196L64.5314 10.9721ZM62.4262 16.6976C62.7951 14.9386 63.5523 13.1078 64.5314 10.9721L61.8042 9.72196C60.8196 11.8699 59.9338 13.9659 59.4901 16.0819L62.4262 16.6976ZM62.6597 21.6093C62.0893 19.9725 62.0705 18.3941 62.4262 16.6976L59.4901 16.0819C59.0452 18.2035 59.0435 20.3492 59.8268 22.5966L62.6597 21.6093ZM66.8726 27.4857C64.4696 25.2161 63.2413 23.2781 62.6597 21.6093L59.8268 22.5966C60.6091 24.8412 62.1677 27.1686 64.8127 29.6667L66.8726 27.4857ZM70.6009 33.4292C70.0593 31.2873 68.8035 29.3093 66.8726 27.4857L64.8127 29.6667C66.427 31.1913 67.3203 32.6929 67.6925 34.1647L70.6009 33.4292ZM70.2653 39.5262C70.9062 37.6418 71.1442 35.5773 70.6009 33.4292L67.6925 34.1647C68.0645 35.6358 67.9217 37.1001 67.4251 38.5603L70.2653 39.5262ZM63.8279 49.152C66.1957 46.4391 69.043 43.1207 70.2653 39.5262L67.4251 38.5603C66.4265 41.4967 64.0144 44.376 61.5677 47.1793L63.8279 49.152ZM63.3146 49.7391C63.484 49.5455 63.6554 49.3496 63.8279 49.152L61.5677 47.1793C61.3968 47.3752 61.2266 47.5696 61.057 47.7635L63.3146 49.7391ZM63.3068 49.748L63.3069 49.7478L61.0647 47.7548L61.0646 47.7549L63.3068 49.748ZM63.3145 49.7393L63.3145 49.7392L61.0568 47.7636L61.0567 47.7637L63.3145 49.7393ZM60.4496 53.1333C61.2875 52.0562 62.2583 50.9462 63.3144 49.7393L61.0568 47.7637C60.0139 48.9554 58.9828 50.133 58.0817 51.2912L60.4496 53.1333ZM58.4485 56.3432C58.8001 55.45 59.4672 54.3961 60.4496 53.1333L58.0817 51.2912C57.0393 52.6312 56.1656 53.9524 55.657 55.2442L58.4485 56.3432ZM58.2642 58.0847C58.1352 57.7122 58.1132 57.1948 58.4485 56.3432L55.657 55.2442C55.1465 56.5409 54.9986 57.8224 55.4294 59.0664L58.2642 58.0847ZM60.1759 60.0484C58.8266 59.1777 58.4033 58.4862 58.2642 58.0847L55.4294 59.0664C55.8595 60.3083 56.8531 61.4746 58.5493 62.5691L60.1759 60.0484ZM67.4794 70.3189C67.5701 66.2503 64.9844 63.1512 60.1759 60.0484L58.5493 62.5691C63.1253 65.522 64.5345 67.8124 64.4802 70.252L67.4794 70.3189ZM66.1989 75.4433C66.8558 73.8591 67.439 72.1313 67.4794 70.3189L64.4802 70.2521C64.4525 71.493 64.0468 72.8014 63.4277 74.2943L66.1989 75.4433ZM64.9714 78.1919C65.4115 77.2365 65.8481 76.2896 66.199 75.4433L63.4277 74.2943C63.1035 75.0761 62.6936 75.9665 62.2466 76.9366L64.9714 78.1919ZM64.9744 78.1852L64.9745 78.185L62.2434 76.9436L62.2433 76.9438L64.9744 78.1852ZM64.9722 78.1901L64.9725 78.1895L62.2453 76.9396L62.245 76.9401L64.9722 78.1901ZM63.8963 80.5684C64.2415 79.7763 64.6091 78.9782 64.971 78.1927L62.2463 76.9374C61.8866 77.7181 61.5058 78.5445 61.1461 79.3699L63.8963 80.5684ZM60.4732 95.0504C60.7103 88.7544 62.3054 84.2191 63.8963 80.5684L61.1461 79.3699C59.4653 83.2269 57.7312 88.1426 57.4753 94.9375L60.4732 95.0504ZM65.4628 120.684C61.3619 109.633 60.2352 101.373 60.4732 95.0504L57.4753 94.9375C57.2196 101.73 58.4415 110.386 62.6502 121.727L65.4628 120.684ZM62.2345 123.481L64.5783 122.612L63.5346 119.799L61.1908 120.669L62.2345 123.481ZM54.9771 94.8434C54.7066 102.028 56.0078 111.013 60.3063 122.597L63.1189 121.553C58.9282 110.26 57.7222 101.67 57.975 94.9563L54.9771 94.8434ZM58.8543 78.3712C57.0985 82.4001 55.2486 87.6327 54.9771 94.8434L57.975 94.9563C58.2277 88.2445 59.9387 83.3923 61.6045 79.5697L58.8543 78.3712ZM60.0155 75.8041C59.6611 76.571 59.2724 77.4118 58.8543 78.3712L61.6045 79.5697C62.0077 78.6444 62.3834 77.8314 62.7387 77.0629L60.0155 75.8041ZM61.1184 73.3367C60.792 74.1238 60.43 74.9076 60.0155 75.8041L62.7387 77.0629C63.1482 76.177 63.5362 75.338 63.8896 74.4858L61.1184 73.3367ZM61.9808 70.1964C61.9638 70.96 61.7067 71.9178 61.1184 73.3367L63.8896 74.4858C64.5148 72.978 64.9503 71.5996 64.98 70.2632L61.9808 70.1964ZM57.1938 64.6697C61.5666 67.4914 62.0051 69.1077 61.9808 70.1964L64.98 70.2632C65.0404 67.5532 63.4367 65.1278 58.8204 62.149L57.1938 64.6697ZM53.0671 59.8845C53.7404 61.8287 55.211 63.3903 57.1938 64.6697L58.8204 62.149C57.182 61.0918 56.2835 60.0046 55.9019 58.9028L53.0671 59.8845ZM53.3308 54.3284C52.6761 55.9914 52.3835 57.9107 53.0671 59.8845L55.9019 58.9028C55.5213 57.8039 55.641 56.6498 56.1223 55.4273L53.3308 54.3284ZM56.1085 49.7562C55.0153 51.1614 53.9699 52.705 53.3308 54.3284L56.1223 55.4273C56.6047 54.202 57.444 52.9253 58.4764 51.5982L56.1085 49.7562ZM59.1822 46.1095C58.1426 47.2972 57.0577 48.5361 56.1085 49.7562L58.4764 51.5982C59.3625 50.4591 60.3876 49.2873 61.4396 48.0854L59.1822 46.1095ZM59.1899 46.1008L59.1898 46.1009L61.432 48.094L61.4321 48.0939L59.1899 46.1008ZM59.6842 45.5354C59.5179 45.726 59.3506 45.9171 59.1823 46.1094L61.4397 48.0853C61.6078 47.8932 61.7765 47.7005 61.9444 47.5081L59.6842 45.5354ZM65.0582 37.7554C64.2468 40.1415 62.2007 42.6521 59.6842 45.5354L61.9444 47.5081C64.3775 44.7204 66.8625 41.7676 67.8984 38.7213L65.0582 37.7554ZM65.2688 34.7776C65.4984 35.6854 65.4342 36.6496 65.0582 37.7554L67.8984 38.7213C68.4191 37.1902 68.5778 35.626 68.1772 34.0421L65.2688 34.7776ZM63.0962 31.4842C64.446 32.7591 65.0376 33.8635 65.2688 34.7776L68.1772 34.0421C67.7768 32.4587 66.8231 30.8777 65.156 29.3032L63.0962 31.4842ZM57.4661 23.4194C58.4157 26.144 60.2496 28.7958 63.0962 31.4842L65.156 29.3032C62.5514 26.8431 61.0478 24.5807 60.299 22.4321L57.4661 23.4194ZM57.0433 15.5688C56.5242 18.0441 56.5053 20.6626 57.4661 23.4194L60.299 22.4321C59.5512 20.2864 59.5494 18.2353 59.9795 16.1845L57.0433 15.5688ZM59.5316 8.6802C58.5417 10.8396 57.5493 13.1559 57.0433 15.5688L59.9795 16.1845C60.4107 14.128 61.2751 12.0762 62.2587 9.93031L59.5316 8.6802ZM60.1622 7.31853C59.9526 7.76871 59.7411 8.22329 59.5316 8.68019L62.2587 9.93031C62.464 9.48263 62.6719 9.03593 62.882 8.58445L60.1622 7.31853ZM60.1668 7.3086L60.1665 7.30923L62.8776 8.59375L62.8779 8.59312L60.1668 7.3086ZM5.78906 121.64V3.07784H2.78906V121.64H5.78906ZM1.78906 123.14H4.28906V120.14H1.78906V123.14ZM0.289062 3.07784V121.64H3.28906V3.07784H0.289062ZM4.28906 1.57784H1.78906V4.57784H4.28906V1.57784ZM22.5878 121.64V3.07784H19.5878V121.64H22.5878ZM18.5878 123.14H21.0878V120.14H18.5878V123.14ZM17.0878 3.07784V121.64H20.0878V3.07784H17.0878ZM21.0878 1.57784H18.5878V4.57784H21.0878V1.57784ZM107.037 13.2036V2H104.037V13.2036H107.037ZM106.956 13.9148C106.97 13.7543 106.99 13.6027 107.015 13.4601L104.059 12.9471C104.019 13.1774 103.989 13.4108 103.968 13.6461L106.956 13.9148ZM106.096 15.4094C106.268 15.1732 106.442 14.9492 106.617 14.737L104.306 12.824C104.089 13.0866 103.876 13.3609 103.669 13.6469L106.096 15.4094ZM101.254 31.1272C102.039 23.4716 103.901 18.434 106.096 15.4094L103.669 13.6469C101.047 17.2586 99.084 22.8775 98.2695 30.8212L101.254 31.1272ZM102.628 48.6515C101.191 44.5688 100.469 38.7804 101.254 31.1272L98.2695 30.8212C97.4523 38.7911 98.1781 45.0445 99.7984 49.6476L102.628 48.6515ZM103.196 50.0941C102.996 49.638 102.806 49.1571 102.628 48.6515L99.7984 49.6476C100 50.2205 100.217 50.7708 100.448 51.2976L103.196 50.0941ZM103.878 66.0653C102.172 59.8561 102.269 54.8578 103.271 51.0805L100.372 50.3112C99.2121 54.6826 99.1628 60.2269 100.985 66.8601L103.878 66.0653ZM104.522 68.2783C104.306 67.5788 104.091 66.8416 103.878 66.0653L100.985 66.8601C101.206 67.6648 101.43 68.4325 101.656 69.1642L104.522 68.2783ZM103.867 88.1289C100.069 79.2477 101.434 73.0918 104.247 69.6746L101.931 67.7679C98.2039 72.2958 97.0104 79.7257 101.108 89.3085L103.867 88.1289ZM108.054 95.9918C106.635 93.8918 105.216 91.2835 103.867 88.1289L101.108 89.3086C102.52 92.6086 104.026 95.3895 105.569 97.6718L108.054 95.9918ZM108.181 97.532C108.208 97.4236 108.235 97.316 108.263 97.2093L105.36 96.4543C105.33 96.5704 105.3 96.6874 105.27 96.8052L108.181 97.532ZM107.036 117.85C106.407 109.03 106.978 102.348 108.181 97.532L105.27 96.8052C103.97 102.013 103.4 109.028 104.044 118.063L107.036 117.85ZM107.927 116.283L105.433 116.461L105.647 119.453L108.14 119.275L107.927 116.283ZM107.307 99.1456C106.364 103.846 105.978 110.031 106.537 117.886L109.53 117.672C108.984 110.013 109.371 104.108 110.248 99.7358L107.307 99.1456ZM115.215 102.568C113.638 102.029 111.816 100.707 109.922 98.471L107.633 100.41C109.724 102.878 111.969 104.629 114.243 105.407L115.215 102.568ZM119.141 101.904C118.191 102.848 116.841 103.125 115.215 102.568L114.243 105.407C116.707 106.25 119.328 105.947 121.256 104.031L119.141 101.904ZM120.711 96.85C120.711 99.2427 120.107 100.943 119.141 101.904L121.256 104.031C123.019 102.278 123.711 99.6437 123.711 96.85H120.711ZM118.215 88.746C119.675 90.2046 120.711 92.9771 120.711 96.85H123.711C123.711 92.5574 122.578 88.8645 120.335 86.6236L118.215 88.746ZM115.794 87.5598C116.658 87.6208 117.487 88.0192 118.215 88.746L120.335 86.6236C119.179 85.469 117.698 84.6867 116.005 84.5673L115.794 87.5598ZM113.075 88.4433C114.002 87.7735 114.929 87.4988 115.794 87.5598L116.005 84.5673C114.315 84.448 112.706 85.0089 111.318 86.012L113.075 88.4433ZM109.197 94.2526C110.316 91.3162 111.695 89.4408 113.075 88.4433L111.318 86.012C109.296 87.4734 107.632 89.9338 106.394 93.1847L109.197 94.2526ZM103.407 88.3255C104.411 90.6735 105.454 92.722 106.508 94.4874L109.084 92.9499C108.106 91.3121 107.123 89.3848 106.165 87.1459L103.407 88.3255ZM102.788 70.9326C100.589 74.7713 100.091 80.5721 103.407 88.3255L106.165 87.1459C103.102 79.9832 103.791 75.2174 105.391 72.4235L102.788 70.9326ZM108.247 76.7584C107.354 75.4798 106.424 73.6564 105.495 71.1556L102.683 72.2005C103.667 74.8476 104.702 76.9213 105.787 78.4756L108.247 76.7584ZM112.068 79.2895C111 79.4377 109.684 78.8174 108.247 76.7584L105.787 78.4756C107.443 80.8474 109.71 82.6453 112.48 82.2611L112.068 79.2895ZM114.855 76.7073C114.136 78.1763 113.155 79.1388 112.068 79.2895L112.48 82.2611C115.068 81.902 116.683 79.7952 117.55 78.027L114.855 76.7073ZM115.987 71.5207C115.987 73.373 115.567 75.2547 114.855 76.7073L117.55 78.027C118.483 76.1211 118.987 73.7808 118.987 71.5207H115.987ZM112.856 66.5724C114.666 67.2146 115.987 68.8391 115.987 71.5207H118.987C118.987 67.6718 116.96 64.8452 113.858 63.745L112.856 66.5724ZM106.529 67.6316C108.644 66.2625 111.024 65.923 112.856 66.5724L113.858 63.745C110.976 62.7226 107.628 63.347 104.899 65.1132L106.529 67.6316ZM106.014 67.989C106.183 67.8635 106.355 67.7444 106.529 67.6317L104.899 65.1132C104.671 65.261 104.446 65.417 104.225 65.5809L106.014 67.989ZM103.396 66.1977C103.49 66.5402 103.584 66.8748 103.679 67.2016L106.561 66.3683C106.47 66.0546 106.379 65.7329 106.289 65.403L103.396 66.1977ZM102.234 53.8476C101.813 57.26 102.071 61.3738 103.396 66.1977L106.289 65.403C105.052 60.9032 104.845 57.1863 105.212 54.2148L102.234 53.8476ZM108.255 55.9302C107.14 55.4722 105.988 54.5651 104.927 53.1368L102.519 54.9256C103.827 56.6876 105.388 57.9958 107.116 58.7054L108.255 55.9302ZM111.146 56.0951C110.266 56.3913 109.274 56.3484 108.255 55.9302L107.116 58.7054C108.716 59.3621 110.455 59.4931 112.103 58.9383L111.146 56.0951ZM113.418 54.1626C112.817 55.1558 112.026 55.7988 111.146 56.0951L112.103 58.9383C113.749 58.3842 115.07 57.2254 115.984 55.7168L113.418 54.1626ZM113.887 44.0966C115.062 48.7797 114.624 52.1715 113.418 54.1626L115.984 55.7168C117.772 52.7654 118.071 48.4458 116.797 43.3667L113.887 44.0966ZM112.853 42.5336C113.335 42.8521 113.704 43.3656 113.887 44.0966L116.797 43.3667C116.456 42.0059 115.693 40.8149 114.507 40.031L112.853 42.5336ZM111.038 42.1395C111.748 42.0755 112.369 42.2137 112.853 42.5336L114.507 40.031C113.346 39.263 112.012 39.0396 110.769 39.1516L111.038 42.1395ZM106.319 45.0159C107.865 43.2084 109.614 42.2678 111.038 42.1395L110.769 39.1516C108.336 39.3707 105.923 40.8642 104.039 43.0655L106.319 45.0159ZM104.516 47.7576C105.051 46.6928 105.665 45.7797 106.319 45.0159L104.039 43.0655C103.221 44.0214 102.475 45.1388 101.836 46.4109L104.516 47.7576ZM100.756 31.0762C100.046 38.0078 100.559 43.447 101.736 47.5021L104.617 46.6664C103.571 43.0626 103.06 38.024 103.741 31.3822L100.756 31.0762ZM104.487 17.0425C102.777 20.2012 101.403 24.7722 100.756 31.0762L103.741 31.3822C104.361 25.3339 105.659 21.178 107.125 18.4708L104.487 17.0425ZM107.531 18.4998C107.435 18.1458 107.348 17.7912 107.272 17.4395L104.34 18.0738C104.428 18.4798 104.527 18.8853 104.636 19.2865L107.531 18.4998ZM109.919 24.2205C108.92 22.5379 108.068 20.475 107.531 18.4998L104.636 19.2865C105.237 21.4987 106.19 23.8156 107.339 25.7516L109.919 24.2205ZM113.117 27.618C112.051 27.177 110.924 25.9152 109.919 24.2205L107.339 25.7516C108.405 27.5479 109.952 29.5551 111.97 30.39L113.117 27.618ZM114.601 27.6359C114.134 27.8484 113.639 27.8341 113.117 27.618L111.97 30.39C113.112 30.8626 114.485 30.9841 115.842 30.3671L114.601 27.6359ZM116.018 26.1299C115.561 26.9514 115.078 27.4195 114.601 27.6359L115.842 30.3671C117.113 29.7899 118.005 28.7296 118.64 27.588L116.018 26.1299ZM117.6 16.3947C118.367 18.9721 118.089 22.4057 116.018 26.1299L118.64 27.588C121.035 23.2812 121.509 19.016 120.476 15.5399L117.6 16.3947ZM112.908 11.7451C115.024 12.0963 116.832 13.8108 117.6 16.3947L120.476 15.5399C119.456 12.1069 116.884 9.36412 113.4 8.78561L112.908 11.7451ZM108.85 12.7041C110.233 11.8117 111.621 11.5314 112.908 11.7451L113.4 8.78561C111.295 8.43623 109.16 8.93342 107.223 10.1835L108.85 12.7041ZM106.537 2V11.4438H109.537V2H106.537ZM105.537 3.5H108.037V0.5H105.537V3.5ZM108.327 97.2493C108.665 97.7116 109.003 98.1468 109.34 98.5552L111.653 96.6445C111.355 96.2841 111.053 95.8958 110.749 95.4788L108.327 97.2493ZM112.782 88.0381C110.986 89.3364 109.302 91.929 108.101 95.9329L110.974 96.7952C112.084 93.0978 113.5 91.2213 114.54 90.4695L112.782 88.0381ZM115.829 87.0611C114.828 86.9904 113.786 87.3123 112.782 88.0381L114.54 90.4695C115.08 90.0792 115.438 90.0409 115.618 90.0536L115.829 87.0611ZM118.568 88.3922C117.769 87.5936 116.831 87.1317 115.829 87.0611L115.618 90.0536C115.794 90.066 116.08 90.1465 116.448 90.5146L118.568 88.3922ZM121.211 96.85C121.211 92.9067 120.159 89.981 118.568 88.3922L116.448 90.5146C117.257 91.3229 118.211 93.3299 118.211 96.85H121.211ZM119.493 102.258C120.592 101.166 121.211 99.3104 121.211 96.85H118.211C118.211 98.9036 117.683 99.8276 117.378 100.13L119.493 102.258ZM115.053 103.042C115.903 103.333 116.734 103.433 117.521 103.291C118.322 103.146 118.981 102.767 119.493 102.258L117.378 100.13C117.262 100.246 117.143 100.311 116.988 100.338C116.818 100.369 116.514 100.371 116.024 100.203L115.053 103.042ZM109.34 98.5552C111.335 100.97 113.3 102.442 115.053 103.042L116.024 100.203C114.99 99.8494 113.454 98.8248 111.653 96.6445L109.34 98.5552ZM104.501 69.842C105.6 73.1102 106.726 75.4537 107.837 77.0446L110.297 75.3274C109.411 74.0589 108.395 72.009 107.345 68.8857L104.501 69.842ZM106.257 67.2119C105.794 67.5117 105.341 67.861 104.908 68.2598L106.938 70.468C107.248 70.183 107.567 69.9377 107.888 69.7304L106.257 67.2119ZM113.023 66.1012C111.017 65.3899 108.476 65.7761 106.257 67.2119L107.888 69.7304C109.488 68.6947 111.061 68.5886 112.02 68.9286L113.023 66.1012ZM116.487 71.5207C116.487 70.1364 116.157 68.9494 115.514 68.0011C114.869 67.0498 113.976 66.4392 113.023 66.1012L112.02 68.9286C112.449 69.0809 112.789 69.3283 113.031 69.685C113.275 70.0445 113.487 70.6152 113.487 71.5207H116.487ZM115.304 76.9273C116.053 75.3991 116.487 73.441 116.487 71.5207H113.487C113.487 73.033 113.137 74.5325 112.61 75.6076L115.304 76.9273ZM112.137 79.7848C113.47 79.5998 114.558 78.4511 115.304 76.9273L112.61 75.6076C112.336 76.1675 112.076 76.4939 111.89 76.6686C111.697 76.8493 111.63 76.8263 111.724 76.8132L112.137 79.7848ZM107.837 77.0446C109.316 79.163 110.79 79.9715 112.137 79.7848L111.724 76.8132C112.053 76.7677 111.533 77.0977 110.297 75.3274L107.837 77.0446ZM103.144 51.1642C104.519 53.9171 106.287 55.6627 108.066 56.3927L109.205 53.6175C108.307 53.249 106.996 52.163 105.827 49.8233L103.144 51.1642ZM105.939 44.6909C104.792 46.0312 103.766 47.8164 103.057 50.0373L105.914 50.9502C106.511 49.0818 107.35 47.656 108.218 46.6414L105.939 44.6909ZM110.993 41.6415C109.401 41.7849 107.542 42.8172 105.939 44.6909L108.218 46.6414C109.482 45.1648 110.676 44.6822 111.262 44.6294L110.993 41.6415ZM113.129 42.1165C112.533 41.7226 111.794 41.5694 110.993 41.6415L111.262 44.6294C111.395 44.6175 111.468 44.6287 111.496 44.6347C111.522 44.6405 111.509 44.6419 111.474 44.6191L113.129 42.1165ZM114.372 43.975C114.162 43.1374 113.727 42.5118 113.129 42.1165L111.474 44.6191C111.459 44.6088 111.444 44.5971 111.432 44.5849C111.42 44.5727 111.413 44.5637 111.411 44.561C111.407 44.5544 111.434 44.5906 111.462 44.7049L114.372 43.975ZM113.846 54.4216C115.149 52.2707 115.563 48.7244 114.372 43.9749L111.462 44.7049C112.553 49.0554 112.002 51.675 111.28 52.8674L113.846 54.4216ZM111.305 56.5689C112.313 56.2299 113.192 55.5012 113.846 54.4216L111.28 52.8674C110.94 53.429 110.592 53.6436 110.348 53.7257L111.305 56.5689ZM108.066 56.3927C109.181 56.8509 110.298 56.9081 111.305 56.5689L110.348 53.7257C110.107 53.807 109.737 53.8361 109.205 53.6175L108.066 56.3927ZM106.429 14.7975C106.453 15.9186 106.671 17.2394 107.049 18.631L109.944 17.8443C109.61 16.6154 109.446 15.5442 109.428 14.7322L106.429 14.7975ZM112.99 11.2518C111.049 10.9296 108.842 11.6482 106.847 13.7259L109.011 15.8039C110.463 14.2914 111.721 14.0822 112.499 14.2113L112.99 11.2518ZM118.08 16.2523C117.269 13.5247 115.332 11.6407 112.99 11.2518L112.499 14.2113C113.483 14.3748 114.65 15.2416 115.204 17.1071L118.08 16.2523ZM116.455 26.3729C118.58 22.5515 118.89 18.9792 118.08 16.2523L115.204 17.1071C115.748 18.9367 115.634 21.6775 113.833 24.9148L116.455 26.3729ZM114.808 28.0911C115.416 27.8149 115.968 27.2488 116.455 26.3729L113.833 24.9148C113.527 25.4662 113.384 25.443 113.567 25.3599L114.808 28.0911ZM112.926 28.08C113.557 28.3413 114.197 28.3687 114.808 28.0911L113.567 25.3599C113.653 25.3208 113.778 25.286 113.917 25.2879C114.041 25.2897 114.102 25.3199 114.073 25.3079L112.926 28.08ZM109.489 24.4757C110.023 25.3757 110.577 26.135 111.129 26.7294C111.662 27.3046 112.269 27.8082 112.926 28.08L114.073 25.3079C113.982 25.2702 113.721 25.113 113.328 24.6891C112.953 24.2845 112.521 23.7067 112.069 22.9446L109.489 24.4757ZM107.049 18.6309C107.596 20.6457 108.465 22.7509 109.489 24.4757L112.069 22.9446C111.195 21.4731 110.427 19.6219 109.944 17.8443L107.049 18.6309Z" fill="#F5F5F5"/>
</svg>
