<svg width="124" height="124" viewBox="0 0 124 124" fill="none" xmlns="http://www.w3.org/2000/svg">
<path fill-rule="evenodd" clip-rule="evenodd" d="M62 119.5C93.7564 119.5 119.5 93.7564 119.5 62C119.5 47.0881 113.824 33.5019 104.514 23.2845L21.1604 101.555L19.449 99.7328L27.2207 92.435C27.1239 92.3839 27.0286 92.3286 26.9352 92.2694C26.1189 91.7524 25.4246 90.9362 24.8286 90.0035C23.6326 88.1314 22.6077 85.4273 21.77 82.4202C20.0879 76.3817 19.0547 68.7266 19.0547 63.017V59.9992L21.1886 62.1331C22.4742 63.4187 24.8301 65.3846 27.6448 67.0211C29.8317 68.2925 32.2156 69.3182 34.5396 69.7198C32.4621 64.8108 31.3028 58.9178 32.212 52.717C33.2514 45.6274 36.9804 38.2411 44.9232 31.5523L46.8114 29.9623L46.9756 32.4253C47.0615 33.7133 47.1193 35.0272 47.1751 36.3255L47.183 36.51L47.183 36.5104C47.2363 37.7505 47.2889 38.9749 47.3637 40.172C47.5214 42.6955 47.7743 45.0193 48.3074 46.9766C48.8413 48.9369 49.6229 50.4026 50.7451 51.3426C51.8356 52.256 53.4038 52.8026 55.802 52.6181C57.8071 52.4639 59.6643 50.8859 61.3393 47.9449C62.9881 45.0499 64.2771 41.141 65.2578 37.0001C67.2175 28.726 67.8682 19.8737 67.8682 17.2542V13.8752L70.0673 16.4407C70.6589 17.131 71.7308 18.7977 72.9571 20.8573C74.2078 22.9579 75.6801 25.5719 77.088 28.2384C78.4945 30.9021 79.846 33.6358 80.8494 35.9717C81.3507 37.1386 81.7728 38.2241 82.0717 39.1622C82.2265 39.6481 82.3589 40.1261 82.4485 40.5748L102.79 21.4734C92.3746 10.9904 77.9452 4.5 62 4.5C30.2436 4.5 4.5 30.2436 4.5 62C4.5 93.7564 30.2436 119.5 62 119.5ZM81.2917 41.661H80.0716C80.0716 41.3561 79.9648 40.7846 79.6897 39.9212C79.4245 39.089 79.0362 38.0849 78.5524 36.9584C77.5854 34.7074 76.2674 32.0386 74.8773 29.4057C73.4886 26.7755 72.0371 24.1989 70.8091 22.1363C70.5912 21.7704 70.3821 21.4236 70.183 21.0979C69.8672 25.2522 69.1156 31.5591 67.6905 37.5762C66.6882 41.8082 65.3331 45.984 63.5116 49.1822C61.7163 52.3344 59.2769 54.8582 55.9938 55.1107C53.1039 55.333 50.8416 54.6846 49.1397 53.2591C47.4696 51.8601 46.4969 49.8428 45.8952 47.6336C45.2927 45.4214 45.0286 42.8893 44.8686 40.328C44.7922 39.1056 44.7386 37.8587 44.6856 36.625L44.6774 36.4329C44.6592 36.0095 44.6409 35.5878 44.6217 35.1682C38.4341 41.0106 35.545 47.2173 34.6855 53.0796C33.7382 59.5408 35.2419 65.6895 37.6939 70.5935L38.5984 72.4025H36.5759C33.0027 72.4025 29.3863 70.9253 26.3883 69.1823C24.5854 68.1341 22.9577 66.9613 21.6353 65.8828C21.9032 70.9108 22.8242 76.8883 24.1783 81.7493C24.9932 84.6744 25.9386 87.0974 26.9354 88.6575C27.4359 89.4409 27.8935 89.9171 28.273 90.1575C28.6097 90.3708 28.8411 90.3793 29.0619 90.3057L29.1636 90.6106L81.2917 41.661ZM62 122C95.1371 122 122 95.1371 122 62C122 28.8629 95.1371 2 62 2C28.8629 2 2 28.8629 2 62C2 95.1371 28.8629 122 62 122ZM95.3267 48.8254C95.8319 62.6333 93.4345 81.4054 84.86 93.2501C80.6096 99.1213 74.873 103.253 67.2035 104.306C59.4941 105.365 49.6514 103.338 37.1769 96.4972L35.9748 98.6892C48.7207 105.679 59.1152 107.94 67.5436 106.783C76.0117 105.62 82.3133 101.031 86.885 94.716C95.9545 82.1878 98.3368 62.7226 97.825 48.734L95.3267 48.8254Z" fill="#F5F5F5"/>
<path d="M104.514 23.2845L105.622 22.2743L104.597 21.1488L103.487 22.1911L104.514 23.2845ZM21.1604 101.555L20.0669 102.582L21.0937 103.676L22.1872 102.649L21.1604 101.555ZM19.449 99.7328L18.4222 98.6394L17.3288 99.6662L18.3555 100.76L19.449 99.7328ZM27.2207 92.435L28.2475 93.5285L29.7803 92.0892L27.9205 91.1083L27.2207 92.435ZM26.9352 92.2694L26.1325 93.5366L26.1325 93.5366L26.9352 92.2694ZM24.8286 90.0035L26.0927 89.1959L24.8286 90.0035ZM21.77 82.4202L20.325 82.8227V82.8227L21.77 82.4202ZM19.0547 59.9992L20.1153 58.9385L17.5547 56.3779V59.9992H19.0547ZM21.1886 62.1331L22.2492 61.0724L22.2492 61.0724L21.1886 62.1331ZM27.6448 67.0211L26.8909 68.3178L27.6448 67.0211ZM34.5396 69.7198L34.2842 71.1979L36.992 71.6658L35.921 69.1352L34.5396 69.7198ZM32.212 52.717L33.6961 52.9346L32.212 52.717ZM44.9232 31.5523L43.957 30.405L44.9232 31.5523ZM46.8114 29.9623L48.3081 29.8625L48.1111 26.9068L45.8452 28.8149L46.8114 29.9623ZM46.9756 32.4253L45.479 32.5251V32.5251L46.9756 32.4253ZM47.1751 36.3255L48.6737 36.2612L48.6737 36.2611L47.1751 36.3255ZM47.183 36.51L45.6844 36.5743L45.6846 36.5796L47.183 36.51ZM47.183 36.5104L48.6817 36.4461L48.6814 36.4408L47.183 36.5104ZM47.3637 40.172L45.8666 40.2656L47.3637 40.172ZM48.3074 46.9766L49.7546 46.5824V46.5824L48.3074 46.9766ZM50.7451 51.3426L51.7083 50.1927H51.7082L50.7451 51.3426ZM55.802 52.6181L55.687 51.1225H55.687L55.802 52.6181ZM61.3393 47.9449L62.6427 48.6873L61.3393 47.9449ZM65.2578 37.0001L63.7982 36.6544L65.2578 37.0001ZM67.8682 13.8752L69.0071 12.899L66.3682 9.82028V13.8752H67.8682ZM70.0673 16.4407L71.2062 15.4646V15.4646L70.0673 16.4407ZM72.9571 20.8573L74.2459 20.0899V20.0899L72.9571 20.8573ZM77.088 28.2384L78.4145 27.538V27.538L77.088 28.2384ZM80.8494 35.9717L82.2276 35.3797L80.8494 35.9717ZM82.0717 39.1622L83.5009 38.7069V38.7068L82.0717 39.1622ZM82.4485 40.5748L80.9775 40.8685L81.5064 43.5171L83.4753 41.6683L82.4485 40.5748ZM102.79 21.4734L103.817 22.5669L104.942 21.5107L103.854 20.4162L102.79 21.4734ZM81.2917 41.661L82.3185 42.7545L85.0804 40.161H81.2917V41.661ZM80.0716 41.661H78.5716V43.161H80.0716V41.661ZM79.6897 39.9212L81.1189 39.4658V39.4658L79.6897 39.9212ZM78.5524 36.9584L79.9306 36.3664V36.3664L78.5524 36.9584ZM74.8773 29.4057L73.5508 30.106V30.106L74.8773 29.4057ZM70.8091 22.1363L72.0979 21.3689L72.0979 21.3689L70.8091 22.1363ZM70.183 21.0979L71.4631 20.3159L69.0398 16.3494L68.6874 20.9842L70.183 21.0979ZM67.6905 37.5762L69.1501 37.9219L67.6905 37.5762ZM63.5116 49.1822L64.8151 49.9245L64.8151 49.9245L63.5116 49.1822ZM55.9938 55.1107L56.1088 56.6063L55.9938 55.1107ZM49.1397 53.2591L50.1029 52.1092H50.1029L49.1397 53.2591ZM45.8952 47.6336L47.3425 47.2394V47.2394L45.8952 47.6336ZM44.8686 40.328L43.3715 40.4215V40.4215L44.8686 40.328ZM44.6856 36.625L43.187 36.6894V36.6894L44.6856 36.625ZM44.6774 36.4329L46.176 36.3686L46.176 36.3685L44.6774 36.4329ZM44.6217 35.1682L46.1201 35.0994L45.9701 31.832L43.5919 34.0776L44.6217 35.1682ZM34.6855 53.0796L33.2014 52.862L34.6855 53.0796ZM37.6939 70.5935L36.3523 71.2644L37.6939 70.5935ZM38.5984 72.4025V73.9025H41.0255L39.9401 71.7317L38.5984 72.4025ZM26.3883 69.1823L27.1422 67.8856H27.1422L26.3883 69.1823ZM21.6353 65.8828L22.5834 64.7204L19.9571 62.5784L20.1374 65.9626L21.6353 65.8828ZM24.1783 81.7493L22.7333 82.1518L24.1783 81.7493ZM26.9354 88.6575L25.6713 89.4651L25.6713 89.4651L26.9354 88.6575ZM28.273 90.1575L29.0757 88.8903L29.0756 88.8903L28.273 90.1575ZM29.0619 90.3057L30.485 89.8313L30.0106 88.4083L28.5876 88.8826L29.0619 90.3057ZM29.1636 90.6106L27.7406 91.085L28.4818 93.3085L30.1904 91.7041L29.1636 90.6106ZM84.86 93.2501L83.6449 92.3705L84.86 93.2501ZM95.3267 48.8254L95.2719 47.3264L93.7729 47.3812L93.8277 48.8802L95.3267 48.8254ZM67.2035 104.306L67.4076 105.792L67.2035 104.306ZM37.1769 96.4972L37.8982 95.182L36.5829 94.4607L35.8617 95.776L37.1769 96.4972ZM35.9748 98.6892L34.6596 97.968L33.9384 99.2832L35.2536 100.004L35.9748 98.6892ZM67.5436 106.783L67.3395 105.297L67.5436 106.783ZM86.885 94.716L85.67 93.8364L86.885 94.716ZM97.825 48.734L99.324 48.6791L99.2692 47.1801L97.7702 47.235L97.825 48.734ZM118 62C118 92.9279 92.9279 118 62 118V121C94.5848 121 121 94.5848 121 62H118ZM103.405 24.2948C112.473 34.2468 118 47.4762 118 62H121C121 46.6999 115.174 32.7571 105.622 22.2743L103.405 24.2948ZM22.1872 102.649L105.54 24.378L103.487 22.1911L20.1336 100.462L22.1872 102.649ZM18.3555 100.76L20.0669 102.582L22.2538 100.528L20.5425 98.706L18.3555 100.76ZM26.1939 91.3415L18.4222 98.6394L20.4758 100.826L28.2475 93.5285L26.1939 91.3415ZM27.9205 91.1083C27.8599 91.0763 27.7989 91.0409 27.7378 91.0022L26.1325 93.5366C26.2584 93.6163 26.3879 93.6916 26.5209 93.7618L27.9205 91.1083ZM27.7379 91.0023C27.1836 90.6512 26.6312 90.0389 26.0927 89.1959L23.5646 90.8111C24.2179 91.8336 25.0543 92.8536 26.1325 93.5366L27.7379 91.0023ZM26.0927 89.1959C25.0162 87.5109 24.039 84.9754 23.215 82.0177L20.325 82.8227C21.1765 85.8792 22.249 88.7519 23.5646 90.8111L26.0927 89.1959ZM23.215 82.0177C21.5684 76.1067 20.5547 68.5869 20.5547 63.017H17.5547C17.5547 68.8663 18.6074 76.6568 20.325 82.8227L23.215 82.0177ZM20.5547 63.017V59.9992H17.5547V63.017H20.5547ZM17.994 61.0598L20.1279 63.1937L22.2492 61.0724L20.1153 58.9385L17.994 61.0598ZM20.1279 63.1937C21.4979 64.5637 23.9555 66.6112 26.8909 68.3178L28.3988 65.7243C25.7046 64.1579 23.4506 62.2738 22.2492 61.0724L20.1279 63.1937ZM26.8909 68.3178C29.1689 69.6422 31.7248 70.7557 34.2842 71.1979L34.795 68.2417C32.7064 67.8808 30.4945 66.9428 28.3988 65.7243L26.8909 68.3178ZM35.921 69.1352C33.9305 64.4318 32.8337 58.8169 33.6961 52.9346L30.7278 52.4994C29.772 59.0187 30.9937 65.1898 33.1582 70.3044L35.921 69.1352ZM33.6961 52.9346C34.678 46.2373 38.2034 39.1722 45.8895 32.6997L43.957 30.405C35.7574 37.3099 31.8248 45.0175 30.7278 52.4994L33.6961 52.9346ZM45.8895 32.6997L47.7776 31.1096L45.8452 28.8149L43.957 30.405L45.8895 32.6997ZM45.3148 30.062L45.479 32.5251L48.4723 32.3255L48.3081 29.8625L45.3148 30.062ZM45.479 32.5251C45.5635 33.7929 45.6206 35.0899 45.6765 36.39L48.6737 36.2611C48.618 34.9645 48.5595 33.6337 48.4723 32.3255L45.479 32.5251ZM45.6765 36.3899L45.6844 36.5743L48.6816 36.4456L48.6737 36.2612L45.6765 36.3899ZM45.6846 36.5796L45.6847 36.5801L48.6814 36.4408L48.6814 36.4403L45.6846 36.5796ZM45.6844 36.5748C45.7376 37.8122 45.7907 39.0514 45.8666 40.2656L48.8608 40.0785C48.787 38.8985 48.735 37.6889 48.6817 36.4461L45.6844 36.5748ZM45.8666 40.2656C46.0257 42.8116 46.2853 45.2605 46.8601 47.3708L49.7546 46.5824C49.2632 44.7781 49.0171 42.5794 48.8608 40.0785L45.8666 40.2656ZM46.8601 47.3708C47.4347 49.4807 48.331 51.2772 49.7819 52.4925L51.7082 50.1927C50.9147 49.528 50.2478 48.393 49.7546 46.5824L46.8601 47.3708ZM49.7819 52.4925C51.2386 53.7127 53.2229 54.3209 55.9171 54.1137L55.687 51.1225C53.5848 51.2842 52.4326 50.7994 51.7083 50.1927L49.7819 52.4925ZM55.9171 54.1137C58.687 53.9006 60.8939 51.7579 62.6427 48.6873L60.0358 47.2026C58.4347 50.0139 56.9271 51.0271 55.687 51.1225L55.9171 54.1137ZM62.6427 48.6873C64.3951 45.6103 65.7238 41.5412 66.7174 37.3458L63.7982 36.6544C62.8304 40.7407 61.5811 44.4894 60.0358 47.2026L62.6427 48.6873ZM66.7174 37.3458C68.7052 28.9531 69.3682 19.9846 69.3682 17.2542H66.3682C66.3682 19.7629 65.7298 28.4988 63.7982 36.6544L66.7174 37.3458ZM69.3682 17.2542V13.8752H66.3682V17.2542H69.3682ZM66.7294 14.8514L68.9284 17.4169L71.2062 15.4646L69.0071 12.899L66.7294 14.8514ZM68.9284 17.4169C69.4204 17.9909 70.4267 19.5394 71.6683 21.6247L74.2459 20.0899C73.0349 18.056 71.8975 16.271 71.2062 15.4646L68.9284 17.4169ZM71.6683 21.6247C72.9054 23.7025 74.3652 26.2941 75.7616 28.9388L78.4145 27.538C76.9951 24.8497 75.5103 22.2133 74.2459 20.0899L71.6683 21.6247ZM75.7616 28.9388C77.1583 31.584 78.4897 34.2788 79.4712 36.5637L82.2276 35.3797C81.2023 32.9928 79.8307 30.2202 78.4145 27.538L75.7616 28.9388ZM79.4712 36.5637C79.962 37.7064 80.3638 38.743 80.6425 39.6176L83.5009 38.7068C83.1817 37.7052 82.7393 36.5709 82.2276 35.3797L79.4712 36.5637ZM80.6425 39.6176C80.7873 40.0719 80.9025 40.4929 80.9775 40.8685L83.9195 40.2811C83.8153 39.7594 83.6658 39.2242 83.5009 38.7069L80.6425 39.6176ZM101.763 20.3799L81.4217 39.4813L83.4753 41.6683L103.817 22.5669L101.763 20.3799ZM62 6C77.5297 6 91.5805 12.3194 101.726 22.5306L103.854 20.4162C93.1686 9.66136 78.3608 3 62 3V6ZM6 62C6 31.0721 31.0721 6 62 6V3C29.4152 3 3 29.4152 3 62H6ZM62 118C31.0721 118 6 92.9279 6 62H3C3 94.5848 29.4152 121 62 121V118ZM81.2917 40.161H80.0716V43.161H81.2917V40.161ZM81.5716 41.661C81.5716 41.111 81.4018 40.3538 81.1189 39.4658L78.2605 40.3766C78.3868 40.7731 78.4679 41.0822 78.5163 41.3109C78.5404 41.4248 78.5549 41.5122 78.5632 41.5756C78.5718 41.6416 78.5716 41.6672 78.5716 41.661H81.5716ZM81.1189 39.4658C80.8335 38.57 80.4249 37.5171 79.9306 36.3664L77.1741 37.5504C77.6476 38.6526 78.0156 39.6079 78.2605 40.3766L81.1189 39.4658ZM79.9306 36.3664C78.9418 34.0644 77.6037 31.3567 76.2037 28.7053L73.5508 30.106C74.9312 32.7204 76.2291 35.3504 77.1741 37.5504L79.9306 36.3664ZM76.2037 28.7053C74.8035 26.0534 73.3396 23.4543 72.0979 21.3689L69.5202 22.9037C70.7347 24.9434 72.1736 27.4977 73.5508 30.106L76.2037 28.7053ZM72.0979 21.3689C71.8773 20.9984 71.6652 20.6468 71.4631 20.3159L68.903 21.8799C69.0989 22.2005 69.305 22.5423 69.5202 22.9037L72.0979 21.3689ZM68.6874 20.9842C68.3753 25.088 67.6325 31.3126 66.2309 37.2305L69.1501 37.9219C70.5987 31.8056 71.359 25.4164 71.6787 21.2116L68.6874 20.9842ZM66.2309 37.2305C65.2416 41.4078 63.9261 45.4235 62.2082 48.4398L64.8151 49.9245C66.7401 46.5446 68.1349 42.2086 69.1501 37.9219L66.2309 37.2305ZM62.2082 48.4398C60.4839 51.4674 58.3936 53.4217 55.8787 53.6151L56.1088 56.6063C60.1602 56.2947 62.9487 53.2015 64.8151 49.9245L62.2082 48.4398ZM55.8787 53.6151C53.2831 53.8148 51.4375 53.2271 50.1029 52.1092L48.1765 54.409C50.2457 56.1422 52.9246 56.8512 56.1088 56.6063L55.8787 53.6151ZM50.1029 52.1092C48.7617 50.9857 47.9036 49.2994 47.3425 47.2394L44.448 48.0277C45.0903 50.3862 46.1775 52.7345 48.1766 54.409L50.1029 52.1092ZM47.3425 47.2394C46.7816 45.18 46.5243 42.7728 46.3656 40.2344L43.3715 40.4215C43.533 43.0057 43.8038 45.6628 44.448 48.0277L47.3425 47.2394ZM46.3656 40.2344C46.2903 39.0292 46.2374 37.797 46.1843 36.5606L43.187 36.6894C43.2399 37.9205 43.294 39.1821 43.3715 40.4215L46.3656 40.2344ZM46.1843 36.5606L46.176 36.3686L43.1788 36.4973L43.187 36.6894L46.1843 36.5606ZM46.176 36.3685C46.1578 35.945 46.1395 35.5213 46.1201 35.0994L43.1232 35.237C43.1424 35.6542 43.1606 36.0741 43.1788 36.4974L46.176 36.3685ZM43.5919 34.0776C37.1729 40.1385 34.1126 46.6475 33.2014 52.862L36.1697 53.2972C36.9775 47.7872 39.6953 41.8827 45.6515 36.2589L43.5919 34.0776ZM33.2014 52.862C32.201 59.685 33.7918 66.1434 36.3523 71.2644L39.0355 69.9227C36.692 65.2356 35.2754 59.3965 36.1697 53.2972L33.2014 52.862ZM36.3523 71.2644L37.2568 73.0734L39.9401 71.7317L39.0355 69.9227L36.3523 71.2644ZM38.5984 70.9025H36.5759V73.9025H38.5984V70.9025ZM36.5759 70.9025C33.3854 70.9025 30.0409 69.5708 27.1422 67.8856L25.6343 70.4791C28.7316 72.2798 32.62 73.9025 36.5759 73.9025V70.9025ZM27.1422 67.8856C25.4173 66.8827 23.8542 65.7569 22.5834 64.7204L20.6873 67.0452C22.0611 68.1657 23.7534 69.3855 25.6343 70.4791L27.1422 67.8856ZM20.1374 65.9626C20.4106 71.0892 21.3471 77.1757 22.7333 82.1518L25.6233 81.3468C24.3012 76.6009 23.3959 70.7325 23.1332 65.803L20.1374 65.9626ZM22.7333 82.1518C23.5619 85.126 24.555 87.7177 25.6713 89.4651L28.1994 87.8499C27.3223 86.4771 26.4245 84.2228 25.6233 81.3468L22.7333 82.1518ZM25.6713 89.4651C26.2289 90.3379 26.8286 91.0182 27.4703 91.4247L29.0756 88.8903C28.9584 88.816 28.6428 88.5439 28.1994 87.8499L25.6713 89.4651ZM27.4703 91.4246C27.7587 91.6073 28.0956 91.7622 28.4832 91.8218C28.8891 91.8841 29.245 91.8258 29.5363 91.7287L28.5876 88.8826C28.6159 88.8732 28.6661 88.8593 28.7329 88.8521C28.8016 88.8447 28.8718 88.8463 28.9386 88.8565C29.0711 88.8769 29.124 88.9209 29.0757 88.8903L27.4703 91.4246ZM27.6389 90.78L27.7406 91.085L30.5866 90.1363L30.485 89.8313L27.6389 90.78ZM80.2649 40.5675L28.1368 89.5171L30.1904 91.7041L82.3185 42.7545L80.2649 40.5675ZM120.5 62C120.5 94.3087 94.3087 120.5 62 120.5V123.5C95.9655 123.5 123.5 95.9655 123.5 62H120.5ZM62 3.5C94.3087 3.5 120.5 29.6913 120.5 62H123.5C123.5 28.0345 95.9655 0.5 62 0.5V3.5ZM3.5 62C3.5 29.6913 29.6913 3.5 62 3.5V0.5C28.0345 0.5 0.5 28.0345 0.5 62H3.5ZM62 120.5C29.6913 120.5 3.5 94.3087 3.5 62H0.5C0.5 95.9655 28.0345 123.5 62 123.5V120.5ZM86.075 94.1296C94.9465 81.8748 97.3348 62.6869 96.8257 48.7705L93.8277 48.8802C94.3289 62.5798 91.9226 80.936 83.6449 92.3705L86.075 94.1296ZM67.4076 105.792C75.5561 104.673 81.6317 100.267 86.075 94.1296L83.6449 92.3705C79.5875 97.9752 74.19 101.833 66.9994 102.82L67.4076 105.792ZM36.4557 97.8124C49.093 104.743 59.2669 106.91 67.4076 105.792L66.9994 102.82C59.7214 103.82 50.2098 101.934 37.8982 95.182L36.4557 97.8124ZM37.2901 99.4105L38.4921 97.2184L35.8617 95.776L34.6596 97.968L37.2901 99.4105ZM67.3395 105.297C59.3426 106.395 49.2792 104.274 36.6961 97.374L35.2536 100.004C48.1621 107.083 58.8879 109.486 67.7477 108.269L67.3395 105.297ZM85.67 93.8364C81.291 99.8855 75.3283 104.2 67.3395 105.297L67.7477 108.269C76.6952 107.04 83.3357 102.177 88.1001 95.5956L85.67 93.8364ZM96.326 48.7888C96.8339 62.669 94.4425 81.7184 85.67 93.8364L88.1001 95.5956C97.4665 82.6572 99.8398 62.7761 99.324 48.6791L96.326 48.7888ZM95.3816 50.3244L97.8799 50.233L97.7702 47.235L95.2719 47.3264L95.3816 50.3244Z" fill="#F5F5F5"/>
</svg>
