<svg width="120" height="120" viewBox="0 0 120 120" fill="none" xmlns="http://www.w3.org/2000/svg">
<mask id="path-1-inside-1_731_7533" fill="white">
<path fill-rule="evenodd" clip-rule="evenodd" d="M96.6945 11.0745H120V16.0745H96.7811C95.7814 22.6442 90.4671 27.6582 84.0613 27.6582C77.6555 27.6582 72.3412 22.6442 71.3415 16.0745H0V11.0745H71.4281C72.6183 4.75665 77.8221 0 84.0613 0C90.3005 0 95.5043 4.75665 96.6945 11.0745ZM42.24 62.4694H120V57.4694H43.1565C43.1569 57.4251 43.1571 57.3807 43.1571 57.3363C43.1571 49.6987 37.3865 43.5072 30.2682 43.5072C23.1499 43.5072 17.3793 49.6987 17.3793 57.3363C17.3793 57.3807 17.3795 57.4251 17.3799 57.4694H0V62.4694H18.2964C20.1961 67.5654 24.8403 71.1654 30.2682 71.1654C35.6961 71.1654 40.3403 67.5654 42.24 62.4694ZM0 111.184H72.0454C73.9165 116.343 78.5909 120 84.0613 120C89.5317 120 94.2061 116.343 96.0772 111.184H120V106.184H96.9502L96.9502 106.171C96.9502 98.5333 91.1796 92.3418 84.0613 92.3418C76.943 92.3418 71.1724 98.5333 71.1724 106.171L71.1724 106.184H0V111.184Z"/>
</mask>
<path fill-rule="evenodd" clip-rule="evenodd" d="M96.6945 11.0745H120V16.0745H96.7811C95.7814 22.6442 90.4671 27.6582 84.0613 27.6582C77.6555 27.6582 72.3412 22.6442 71.3415 16.0745H0V11.0745H71.4281C72.6183 4.75665 77.8221 0 84.0613 0C90.3005 0 95.5043 4.75665 96.6945 11.0745ZM42.24 62.4694H120V57.4694H43.1565C43.1569 57.4251 43.1571 57.3807 43.1571 57.3363C43.1571 49.6987 37.3865 43.5072 30.2682 43.5072C23.1499 43.5072 17.3793 49.6987 17.3793 57.3363C17.3793 57.3807 17.3795 57.4251 17.3799 57.4694H0V62.4694H18.2964C20.1961 67.5654 24.8403 71.1654 30.2682 71.1654C35.6961 71.1654 40.3403 67.5654 42.24 62.4694ZM0 111.184H72.0454C73.9165 116.343 78.5909 120 84.0613 120C89.5317 120 94.2061 116.343 96.0772 111.184H120V106.184H96.9502L96.9502 106.171C96.9502 98.5333 91.1796 92.3418 84.0613 92.3418C76.943 92.3418 71.1724 98.5333 71.1724 106.171L71.1724 106.184H0V111.184Z" fill="#672B2D"/>
<path d="M120 11.0745H123V8.07451H120V11.0745ZM96.6945 11.0745L93.7463 11.6299L94.2069 14.0745H96.6945V11.0745ZM120 16.0745V19.0745H123V16.0745H120ZM96.7811 16.0745V13.0745H94.2031L93.8153 15.6232L96.7811 16.0745ZM71.3415 16.0745L74.3073 15.6232L73.9194 13.0745H71.3415V16.0745ZM0 16.0745H-3V19.0745H0V16.0745ZM0 11.0745V8.07451H-3V11.0745H0ZM71.4281 11.0745V14.0745H73.9157L74.3763 11.6299L71.4281 11.0745ZM120 62.4694V65.4694H123V62.4694H120ZM42.24 62.4694V59.4694H40.1567L39.429 61.4215L42.24 62.4694ZM120 57.4694H123V54.4694H120V57.4694ZM43.1565 57.4694L40.1566 57.4431L40.1301 60.4694H43.1565V57.4694ZM17.3799 57.4694V60.4694H20.4063L20.3798 57.4431L17.3799 57.4694ZM0 57.4694V54.4694H-3V57.4694H0ZM0 62.4694H-3V65.4694H0V62.4694ZM18.2964 62.4694L21.1074 61.4215L20.3797 59.4694H18.2964V62.4694ZM72.0454 111.184L74.8656 110.161L74.1486 108.184H72.0454V111.184ZM0 111.184H-3V114.184H0V111.184ZM96.0772 111.184V108.184H93.974L93.257 110.161L96.0772 111.184ZM120 111.184V114.184H123V111.184H120ZM120 106.184H123V103.184H120V106.184ZM96.9502 106.184L93.9502 106.182L93.9484 109.184H96.9502V106.184ZM96.9502 106.171L99.9502 106.173V106.171H96.9502ZM71.1724 106.171H68.1724V106.173L71.1724 106.171ZM71.1724 106.184V109.184H74.1742L74.1724 106.182L71.1724 106.184ZM0 106.184V103.184H-3V106.184H0ZM120 8.07451H96.6945V14.0745H120V8.07451ZM123 16.0745V11.0745H117V16.0745H123ZM96.7811 19.0745H120V13.0745H96.7811V19.0745ZM84.0613 30.6582C92.1256 30.6582 98.5517 24.3802 99.747 16.5259L93.8153 15.6232C93.011 20.9082 88.8085 24.6582 84.0613 24.6582V30.6582ZM68.3756 16.5259C69.5709 24.3802 75.997 30.6582 84.0613 30.6582V24.6582C79.3141 24.6582 75.1116 20.9082 74.3073 15.6232L68.3756 16.5259ZM0 19.0745H71.3415V13.0745H0V19.0745ZM-3 11.0745V16.0745H3V11.0745H-3ZM71.4281 8.07451H0V14.0745H71.4281V8.07451ZM84.0613 -3C76.2084 -3 69.9042 2.95851 68.48 10.5191L74.3763 11.6299C75.3323 6.55479 79.4357 3 84.0613 3V-3ZM99.6426 10.5191C98.2184 2.95851 91.9142 -3 84.0613 -3V3C88.6869 3 92.7903 6.55479 93.7463 11.6299L99.6426 10.5191ZM120 59.4694H42.24V65.4694H120V59.4694ZM117 57.4694V62.4694H123V57.4694H117ZM43.1565 60.4694H120V54.4694H43.1565V60.4694ZM40.1571 57.3363C40.1571 57.372 40.1569 57.4076 40.1566 57.4431L46.1564 57.4957C46.1569 57.4426 46.1571 57.3895 46.1571 57.3363H40.1571ZM30.2682 46.5072C35.5342 46.5072 40.1571 51.1531 40.1571 57.3363H46.1571C46.1571 48.2443 39.2388 40.5072 30.2682 40.5072V46.5072ZM20.3793 57.3363C20.3793 51.1531 25.0022 46.5072 30.2682 46.5072V40.5072C21.2976 40.5072 14.3793 48.2443 14.3793 57.3363H20.3793ZM20.3798 57.4431C20.3795 57.4075 20.3793 57.3719 20.3793 57.3363H14.3793C14.3793 57.3896 14.3795 57.4427 14.38 57.4957L20.3798 57.4431ZM0 60.4694H17.3799V54.4694H0V60.4694ZM3 62.4694V57.4694H-3V62.4694H3ZM18.2964 59.4694H0V65.4694H18.2964V59.4694ZM30.2682 68.1654C26.2363 68.1654 22.6219 65.484 21.1074 61.4215L15.4854 63.5173C17.7704 69.6468 23.4443 74.1654 30.2682 74.1654V68.1654ZM39.429 61.4215C37.9145 65.484 34.3001 68.1654 30.2682 68.1654V74.1654C37.0921 74.1654 42.766 69.6468 45.051 63.5173L39.429 61.4215ZM72.0454 108.184H0V114.184H72.0454V108.184ZM84.0613 117C79.9983 117 76.3579 114.276 74.8656 110.161L69.2251 112.207C71.4751 118.411 77.1836 123 84.0613 123V117ZM93.257 110.161C91.7646 114.276 88.1243 117 84.0613 117V123C90.939 123 96.6475 118.411 98.8975 112.207L93.257 110.161ZM120 108.184H96.0772V114.184H120V108.184ZM117 106.184V111.184H123V106.184H117ZM96.9502 109.184H120V103.184H96.9502V109.184ZM93.9502 106.169L93.9502 106.182L99.9502 106.186L99.9502 106.173L93.9502 106.169ZM84.0613 95.3418C89.3273 95.3418 93.9502 99.9877 93.9502 106.171H99.9502C99.9502 97.0789 93.0319 89.3418 84.0613 89.3418V95.3418ZM74.1724 106.171C74.1724 99.9877 78.7953 95.3418 84.0613 95.3418V89.3418C75.0907 89.3418 68.1724 97.0789 68.1724 106.171H74.1724ZM74.1724 106.182L74.1724 106.169L68.1724 106.173L68.1724 106.186L74.1724 106.182ZM0 109.184H71.1724V103.184H0V109.184ZM3 111.184V106.184H-3V111.184H3Z" fill="#F5F5F5" mask="url(#path-1-inside-1_731_7533)"/>
</svg>
