<svg width="351" height="62" viewBox="0 0 351 62" fill="none" xmlns="http://www.w3.org/2000/svg">
<path d="M31.5712 0L38.6554 21.4205H61.5804L43.0337 34.6591L50.1179 56.0795L31.5712 42.841L13.0244 56.0795L20.1086 34.6591L1.56192 21.4205H24.4869L31.5712 0Z" fill="#F5F5F5"/>
<path d="M103.536 0L110.62 21.4205H133.545L114.998 34.6591L122.082 56.0795L103.536 42.841L84.9888 56.0795L92.073 34.6591L73.5263 21.4205H96.4513L103.536 0Z" fill="#F5F5F5"/>
<path d="M175.5 0L182.584 21.4205H205.509L186.962 34.6591L194.047 56.0795L175.5 42.841L156.953 56.0795L164.037 34.6591L145.491 21.4205H168.416L175.5 0Z" fill="#F5F5F5"/>
<path d="M247.464 0L254.548 21.4205H277.473L258.927 34.6591L266.011 56.0795L247.464 42.841L228.917 56.0795L236.002 34.6591L217.455 21.4205H240.38L247.464 0Z" fill="#F5F5F5"/>
<path d="M319.428 0L326.512 21.4205H349.437L330.891 34.6591L337.975 56.0795L319.428 42.841L300.881 56.0795L307.966 34.6591L289.419 21.4205H312.344L319.428 0Z" fill="url(#paint0_linear_731_7544)"/>
<defs>
<linearGradient id="paint0_linear_731_7544" x1="319.428" y1="28.2321" x2="319.982" y2="28.2321" gradientUnits="userSpaceOnUse">
<stop stop-color="#F5F5F5"/>
<stop offset="1" stop-color="#B5B5B5"/>
</linearGradient>
</defs>
</svg>
