<svg width="27" height="26" viewBox="0 0 27 26" fill="none" xmlns="http://www.w3.org/2000/svg">
<path fill-rule="evenodd" clip-rule="evenodd" d="M5.79177 4.17869H24.4997H26.2396L25.6843 5.82761L22.2688 15.9704L21.9822 16.8215H21.0841H7.10332C6.36646 16.9243 5.77926 17.068 5.3417 17.2554C4.97935 17.4106 4.79472 17.565 4.70303 17.681C4.63151 17.7716 4.57907 17.8832 4.57369 18.0742C4.58656 18.0911 4.61175 18.1191 4.65811 18.1589C4.82308 18.3006 5.14141 18.4819 5.67217 18.6644C6.72578 19.0266 8.26715 19.2782 10.0867 19.4288C13.6993 19.728 18.0698 19.6049 20.9951 19.396L21.1631 21.7495C21.4832 22.2 21.6767 22.7867 21.6767 23.4283C21.6767 24.8485 20.7286 25.9998 19.559 25.9998C18.3895 25.9998 17.4414 24.8485 17.4414 23.4283C17.4414 22.9263 17.5599 22.4579 17.7647 22.0621C15.2931 22.1401 12.4874 22.1299 9.98564 21.9289C10.2356 22.351 10.3827 22.8688 10.3827 23.4283C10.3827 24.8485 9.43464 25.9998 8.2651 25.9998C7.09555 25.9998 6.14745 24.8485 6.14745 23.4283C6.14745 22.6768 6.41298 22.0005 6.83634 21.5303C6.11393 21.3952 5.44559 21.2301 4.85949 21.0286C4.18769 20.7977 3.53472 20.4897 3.02903 20.0553C2.50091 19.6016 2.07323 18.9494 2.07323 18.1072C2.07323 17.3676 2.29648 16.6944 2.74129 16.1313C3.16993 15.5887 3.74846 15.2181 4.35742 14.9573C4.42767 14.9272 4.49928 14.8982 4.57219 14.8702L2.11626 5.75384L1.69192 4.17869H2.88336C3.05897 3.97296 3.21208 3.7629 3.32361 3.56718C3.37505 3.47692 3.40973 3.40397 3.43322 3.34699C3.40972 3.34056 3.38328 3.3339 3.35361 3.32712C2.91672 3.2272 2.09303 3.19685 0.68357 3.40612L0.316406 0.933231C1.83346 0.707985 3.02176 0.686686 3.91094 0.89003C4.82765 1.09967 5.67304 1.62653 5.92055 2.63102C6.05808 3.18916 5.95965 3.72741 5.79177 4.17869ZM3.6019 3.41174C3.60134 3.41197 3.59646 3.40931 3.58891 3.4031C3.59868 3.4084 3.60245 3.41151 3.6019 3.41174ZM15.647 14.2141L15.6471 14.2141C17.1305 14.2583 18.6552 14.3037 20.1875 14.3174L22.7598 6.67869H4.95454L7.0109 14.3118C7.58777 14.2401 8.19342 14.1939 8.81409 14.1644C10.5331 14.0826 12.5205 14.124 14.5982 14.1833C14.9451 14.1932 15.2948 14.2036 15.6468 14.2141L15.647 14.2141ZM4.56181 18.0548C4.5623 18.0548 4.56445 18.0581 4.56675 18.0645C4.56246 18.0579 4.56131 18.0547 4.56181 18.0548Z" fill="#F5F5F5"/>
</svg>
