<svg width="32" height="32" viewBox="0 0 32 32" fill="none" xmlns="http://www.w3.org/2000/svg">
<rect x="1" y="1" width="30" height="30" rx="3" fill="#83687B"/>
<path fill-rule="evenodd" clip-rule="evenodd" d="M13.8536 25.9679C14.877 26.3267 16.1423 25.8541 16.6799 24.9122L26.8993 7.0051C27.4368 6.06321 27.043 5.00874 26.0196 4.64987C24.9962 4.291 23.7309 4.76364 23.1933 5.70553L14.5368 20.8739L8.71918 13.7298C8.0291 12.8824 6.69307 12.6218 5.73509 13.1477C4.77711 13.6737 4.55994 14.7871 5.25003 15.6345L12.6223 24.6877C12.6723 24.7491 12.7258 24.8075 12.7822 24.8627C12.91 25.3535 13.2844 25.7683 13.8536 25.9679Z" fill="#F5F5F5"/>
<rect x="1" y="1" width="30" height="30" rx="3" stroke="#83687B" stroke-width="2"/>
</svg>
