<svg width="25" height="25" viewBox="0 0 25 25" fill="none" xmlns="http://www.w3.org/2000/svg">
<path d="M24.5 17.0915C24.5 21.4595 21.896 24.0635 17.528 24.0635H16.1C15.44 24.0635 14.9 23.5235 14.9 22.8635V15.9395C14.9 15.6155 15.164 15.3395 15.488 15.3395L17.6 15.3035C17.768 15.2915 17.912 15.1715 17.948 15.0035L18.368 12.7115C18.404 12.4955 18.236 12.2915 18.008 12.2915L15.452 12.3275C15.116 12.3275 14.852 12.0635 14.84 11.7395L14.792 8.79948C14.792 8.60748 14.948 8.43949 15.152 8.43949L18.032 8.39148C18.236 8.39148 18.392 8.23549 18.392 8.03149L18.344 5.15146C18.344 4.94746 18.188 4.79148 17.984 4.79148L14.744 4.83949C12.752 4.87549 11.168 6.50748 11.204 8.49948L11.264 11.7995C11.276 12.1355 11.012 12.3995 10.676 12.4115L9.236 12.4355C9.032 12.4355 8.87601 12.5915 8.87601 12.7955L8.91201 15.0755C8.91201 15.2795 9.068 15.4355 9.272 15.4355L10.712 15.4115C11.048 15.4115 11.312 15.6755 11.324 15.9995L11.432 22.8395C11.444 23.5115 10.904 24.0635 10.232 24.0635H7.472C3.104 24.0635 0.5 21.4595 0.5 17.0795V7.03548C0.5 2.66748 3.104 0.0634766 7.472 0.0634766H17.528C21.896 0.0634766 24.5 2.66748 24.5 7.03548V17.0915Z" fill="#F5F5F5"/>
</svg>
