<svg width="25" height="25" viewBox="0 0 25 25" fill="none" xmlns="http://www.w3.org/2000/svg">
<path d="M17.5365 0.0634766H7.47548C3.1053 0.0634766 0.5 2.66748 0.5 7.03548V17.0795C0.5 21.4595 3.1053 24.0635 7.47548 24.0635H17.5245C21.8947 24.0635 24.5 21.4595 24.5 17.0915V7.03548C24.512 2.66748 21.9067 0.0634766 17.5365 0.0634766ZM12.506 16.7195C9.9367 16.7195 7.84766 14.6315 7.84766 12.0635C7.84766 9.49548 9.9367 7.40748 12.506 7.40748C15.0753 7.40748 17.1643 9.49548 17.1643 12.0635C17.1643 14.6315 15.0753 16.7195 12.506 16.7195ZM19.6135 5.91948C19.5535 6.06348 19.4694 6.19548 19.3614 6.31548C19.2413 6.42348 19.1093 6.50748 18.9652 6.56748C18.8211 6.62748 18.6651 6.66348 18.509 6.66348C18.1848 6.66348 17.8847 6.54348 17.6565 6.31548C17.5485 6.19548 17.4645 6.06348 17.4044 5.91948C17.3444 5.77548 17.3084 5.61948 17.3084 5.46348C17.3084 5.30748 17.3444 5.15148 17.4044 5.00748C17.4645 4.85148 17.5485 4.73148 17.6565 4.61148C17.9327 4.33548 18.3529 4.20348 18.7371 4.28748C18.8211 4.29948 18.8932 4.32348 18.9652 4.35948C19.0372 4.38348 19.1093 4.41948 19.1813 4.46748C19.2413 4.50348 19.3014 4.56348 19.3614 4.61148C19.4694 4.73148 19.5535 4.85148 19.6135 5.00748C19.6736 5.15148 19.7096 5.30748 19.7096 5.46348C19.7096 5.61948 19.6736 5.77548 19.6135 5.91948Z" fill="#F5F5F5"/>
</svg>
