<svg width="48" height="48" viewBox="0 0 48 48" fill="none" xmlns="http://www.w3.org/2000/svg">
<path d="M1 1H47V47H1V1Z" fill="#83687B"/>
<mask id="path-2-inside-1_1002_7289" fill="white">
<path fill-rule="evenodd" clip-rule="evenodd" d="M22.499 36H25.499L25.499 25.5H36V22.5H25.499L25.499 12L22.499 12L22.499 22.5H12L12 25.5H22.499L22.499 36Z"/>
</mask>
<path fill-rule="evenodd" clip-rule="evenodd" d="M22.499 36H25.499L25.499 25.5H36V22.5H25.499L25.499 12L22.499 12L22.499 22.5H12L12 25.5H22.499L22.499 36Z" fill="#F5F5F5"/>
<path d="M25.499 36V38H27.499V36H25.499ZM22.499 36H20.499V38H22.499V36ZM25.499 25.5V23.5H23.499V25.5H25.499ZM36 25.5V27.5H38V25.5H36ZM36 22.5H38V20.5H36V22.5ZM25.499 22.5H23.499V24.5H25.499V22.5ZM25.499 12L27.499 12V10L25.499 10V12ZM22.499 12V10L20.499 10V12L22.499 12ZM22.499 22.5V24.5H24.499V22.5H22.499ZM12 22.5V20.5H10L10 22.5H12ZM12 25.5H10V27.5H12V25.5ZM22.499 25.5H24.499V23.5H22.499V25.5ZM25.499 34H22.499V38H25.499V34ZM23.499 25.5L23.499 36H27.499L27.499 25.5H23.499ZM36 23.5H25.499V27.5H36V23.5ZM34 22.5V25.5H38V22.5H34ZM25.499 24.5H36V20.5H25.499V24.5ZM23.499 12L23.499 22.5H27.499L27.499 12L23.499 12ZM22.499 14L25.499 14V10L22.499 10V14ZM24.499 22.5L24.499 12L20.499 12L20.499 22.5H24.499ZM12 24.5H22.499V20.5H12V24.5ZM14 25.5L14 22.5H10L10 25.5H14ZM22.499 23.5H12V27.5H22.499V23.5ZM24.499 36L24.499 25.5H20.499L20.499 36H24.499Z" fill="#F5F5F5" mask="url(#path-2-inside-1_1002_7289)"/>
<path d="M1 1H47V47H1V1Z" stroke="#ADADAD" stroke-width="2"/>
</svg>
