<svg width="25" height="24" viewBox="0 0 25 24" fill="none" xmlns="http://www.w3.org/2000/svg">
<path fill-rule="evenodd" clip-rule="evenodd" d="M13.8328 13.9867C12.7131 14.7864 11.3127 15.2679 9.76445 15.2679C5.9283 15.2679 2.99951 12.3118 2.99951 8.88396C2.99951 5.45609 5.9283 2.5 9.76445 2.5C13.6006 2.5 16.5294 5.45609 16.5294 8.88396C16.5294 10.3612 15.9855 11.7508 15.0594 12.854L15.0368 12.8323L13.8328 13.9867ZM14.5104 16.5154C13.1223 17.3108 11.499 17.7679 9.76445 17.7679C4.64756 17.7679 0.499512 13.7904 0.499512 8.88396C0.499512 3.97748 4.64756 0 9.76445 0C14.8813 0 19.0294 3.97748 19.0294 8.88396C19.0294 11.0553 18.217 13.0447 16.8678 14.588L24.4998 21.9062L22.316 24.0001L14.5104 16.5154Z" fill="#F5F5F5"/>
</svg>
