<svg width="155" height="24" viewBox="0 0 155 24" fill="none" xmlns="http://www.w3.org/2000/svg">
<path d="M12.2143 0L14.9566 8.2918H23.8308L16.6514 13.4164L19.3937 21.7082L12.2143 16.5836L5.03491 21.7082L7.77719 13.4164L0.59781 8.2918H9.47201L12.2143 0Z" fill="#672B2D"/>
<path d="M44.643 0L47.3853 8.2918H56.2595L49.0801 13.4164L51.8224 21.7082L44.643 16.5836L37.4636 21.7082L40.2059 13.4164L33.0265 8.2918H41.9007L44.643 0Z" fill="#672B2D"/>
<path d="M77.0712 0L79.8135 8.2918H88.6877L81.5083 13.4164L84.2506 21.7082L77.0712 16.5836L69.8918 21.7082L72.6341 13.4164L65.4547 8.2918H74.3289L77.0712 0Z" fill="#672B2D"/>
<path d="M109.5 0L112.242 8.2918H121.116L113.937 13.4164L116.679 21.7082L109.5 16.5836L102.321 21.7082L105.063 13.4164L97.8835 8.2918H106.758L109.5 0Z" fill="#672B2D"/>
<path d="M141.929 0L144.671 8.2918H153.545L146.366 13.4164L149.108 21.7082L141.929 16.5836L134.749 21.7082L137.492 13.4164L130.312 8.2918H139.186L141.929 0Z" fill="#672B2D"/>
</svg>
