<svg width="27" height="24" viewBox="0 0 27 24" fill="none" xmlns="http://www.w3.org/2000/svg">
<path d="M24.961 2.65148C24.361 2.65148 23.445 3.43015 22.2904 3.65682C21.8171 3.15303 21.2455 2.75169 20.6109 2.47763C19.9763 2.20357 19.2923 2.06262 18.601 2.06348C17.8398 2.06305 17.0882 2.23468 16.4026 2.56552C15.717 2.89636 15.115 3.37788 14.6416 3.97407C14.1683 4.57027 13.8358 5.26574 13.669 6.00851C13.5021 6.75128 13.5054 7.52214 13.6783 8.2635C8.32099 8.2635 6.47299 3.29415 4.62498 3.29415C2.77831 3.29415 2.77831 5.44616 2.77831 6.37016C2.77831 9.59683 2.95165 12.8448 8.71833 16.1809C6.61299 17.8302 2.16365 18.6742 1.54764 19.7942C0.931642 20.9169 6.44099 22.0635 9.293 22.0635C17.9757 22.0635 24.1357 17.4995 23.7597 9.12217C26.165 6.18082 25.5637 2.65148 24.961 2.65148Z" stroke="#F5F5F5" stroke-width="2.5" stroke-linejoin="round"/>
</svg>
